<svg width="40" height="40" viewBox="0 0 40 40" fill="none" xmlns="http://www.w3.org/2000/svg">
    <rect width="40" height="40" rx="4" fill="url(#paint0_linear_8795_9653)" />
    <g clip-path="url(#clip0_8795_9653)">
        <path
            d="M25.3034 13.8633C26.6803 15.2401 27.4678 17.0984 27.4994 19.0454C27.531 20.9923 26.8041 22.8751 25.4725 24.2958L25.3034 24.4708L21.7675 28.0058C21.3189 28.4542 20.7166 28.7153 20.0827 28.7362C19.4487 28.757 18.8306 28.5362 18.3534 28.1183L18.2334 28.0058L14.6967 24.47C13.2902 23.0635 12.5 21.1558 12.5 19.1667C12.5 17.1775 13.2902 15.2699 14.6967 13.8633C16.1032 12.4568 18.0109 11.6666 20 11.6666C21.9892 11.6666 23.8968 12.4568 25.3034 13.8633ZM20 16.6667C19.6717 16.6667 19.3467 16.7313 19.0433 16.857C18.74 16.9826 18.4644 17.1668 18.2323 17.3989C18.0001 17.6311 17.816 17.9066 17.6903 18.21C17.5647 18.5133 17.5 18.8384 17.5 19.1667C17.5 19.495 17.5647 19.8201 17.6903 20.1234C17.816 20.4267 18.0001 20.7023 18.2323 20.9344C18.4644 21.1666 18.74 21.3507 19.0433 21.4764C19.3467 21.602 19.6717 21.6667 20 21.6667C20.6631 21.6667 21.299 21.4033 21.7678 20.9344C22.2367 20.4656 22.5 19.8297 22.5 19.1667C22.5 18.5036 22.2367 17.8677 21.7678 17.3989C21.299 16.9301 20.6631 16.6667 20 16.6667Z"
            fill="white" />
    </g>
    <defs>
        <linearGradient id="paint0_linear_8795_9653" x1="20" y1="0" x2="20" y2="40" gradientUnits="userSpaceOnUse">
            <stop stop-color="#8BC0F2" />
            <stop offset="1" stop-color="#305BA3" />
        </linearGradient>
        <clipPath id="clip0_8795_9653">
            <rect width="20" height="20" fill="white" transform="translate(10 10)" />
        </clipPath>
    </defs>
</svg>