<svg width="40" height="40" viewBox="0 0 40 40" fill="none" xmlns="http://www.w3.org/2000/svg">
<rect width="40" height="40" rx="20" fill="#F2F2F2"/>
<g clip-path="url(#clip0_10176_29747)">
<path d="M18 16V14C18 13.4696 18.2107 12.9609 18.5858 12.5858C18.9609 12.2107 19.4696 12 20 12H27C27.5304 12 28.0391 12.2107 28.4142 12.5858C28.7893 12.9609 29 13.4696 29 14V26C29 26.5304 28.7893 27.0391 28.4142 27.4142C28.0391 27.7893 27.5304 28 27 28H20C19.4696 28 18.9609 27.7893 18.5858 27.4142C18.2107 27.0391 18 26.5304 18 26V24" stroke="black" stroke-width="1.5" stroke-linecap="round" stroke-linejoin="round"/>
<path d="M25 20H11M11 20L14 17M11 20L14 23" stroke="black" stroke-width="1.5" stroke-linecap="round" stroke-linejoin="round"/>
</g>
<defs>
<clipPath id="clip0_10176_29747">
<rect width="24" height="24" fill="white" transform="translate(8 8)"/>
</clipPath>
</defs>
</svg>
