<svg width="25" height="24" viewBox="0 0 25 24" fill="none" xmlns="http://www.w3.org/2000/svg">
    <g id="Icon - 24px" clip-path="url(#clip0_8805_24965)">
        <path id="Vector"
            d="M10.575 4.317C11.001 2.561 13.499 2.561 13.925 4.317C13.9889 4.5808 14.1142 4.82578 14.2907 5.032C14.4672 5.23822 14.6899 5.39985 14.9407 5.50375C15.1914 5.60764 15.4632 5.65085 15.7338 5.62987C16.0044 5.60889 16.2662 5.5243 16.498 5.383C18.041 4.443 19.808 6.209 18.868 7.753C18.7269 7.98466 18.6424 8.24634 18.6215 8.51677C18.6006 8.78721 18.6438 9.05877 18.7475 9.30938C18.8513 9.55999 19.0127 9.78258 19.2187 9.95905C19.4247 10.1355 19.6694 10.2609 19.933 10.325C21.689 10.751 21.689 13.249 19.933 13.675C19.6692 13.7389 19.4242 13.8642 19.218 14.0407C19.0118 14.2172 18.8501 14.4399 18.7463 14.6907C18.6424 14.9414 18.5991 15.2132 18.6201 15.4838C18.6411 15.7544 18.7257 16.0162 18.867 16.248C19.807 17.791 18.041 19.558 16.497 18.618C16.2653 18.4769 16.0037 18.3924 15.7332 18.3715C15.4628 18.3506 15.1912 18.3938 14.9406 18.4975C14.69 18.6013 14.4674 18.7627 14.2909 18.9687C14.1145 19.1747 13.9891 19.4194 13.925 19.683C13.499 21.439 11.001 21.439 10.575 19.683C10.5111 19.4192 10.3858 19.1742 10.2093 18.968C10.0328 18.7618 9.81011 18.6001 9.55935 18.4963C9.30859 18.3924 9.03683 18.3491 8.76621 18.3701C8.49559 18.3911 8.23375 18.4757 8.002 18.617C6.459 19.557 4.692 17.791 5.632 16.247C5.7731 16.0153 5.85755 15.7537 5.87848 15.4832C5.89942 15.2128 5.85624 14.9412 5.75247 14.6906C5.6487 14.44 5.48726 14.2174 5.28127 14.0409C5.07529 13.8645 4.83056 13.7391 4.567 13.675C2.811 13.249 2.811 10.751 4.567 10.325C4.8308 10.2611 5.07578 10.1358 5.282 9.95929C5.48822 9.7828 5.64985 9.56011 5.75375 9.30935C5.85764 9.05859 5.90085 8.78683 5.87987 8.51621C5.85889 8.24559 5.7743 7.98375 5.633 7.752C4.693 6.209 6.459 4.442 8.003 5.382C9.003 5.99 10.299 5.452 10.575 4.317Z"
            stroke="white" stroke-width="1.5" stroke-linecap="round" stroke-linejoin="round" />
        <path id="Vector_2"
            d="M12.25 15C13.9069 15 15.25 13.6569 15.25 12C15.25 10.3431 13.9069 9 12.25 9C10.5931 9 9.25 10.3431 9.25 12C9.25 13.6569 10.5931 15 12.25 15Z"
            stroke="white" stroke-width="1.5" stroke-linecap="round" stroke-linejoin="round" />
    </g>
    <defs>
        <clipPath id="clip0_8805_24965">
            <rect width="24" height="24" fill="white" transform="translate(0.25)" />
        </clipPath>
    </defs>
</svg>