<svg width="24" height="24" viewBox="0 0 24 24" fill="none" xmlns="http://www.w3.org/2000/svg">
<g id="Frame" clip-path="url(#clip0_8805_24954)">
<path id="Union" fill-rule="evenodd" clip-rule="evenodd" d="M21.3943 3.36201C21.6154 3.49867 21.75 3.74007 21.75 4V14C21.75 14.4142 21.4142 14.75 21 14.75C20.5858 14.75 20.25 14.4142 20.25 14V5.21353L15.75 7.46353V12C15.75 12.4142 15.4142 12.75 15 12.75C14.5858 12.75 14.25 12.4142 14.25 12V7.46353L9.75 5.21353V16.5365L11.3354 17.3292C11.7059 17.5144 11.8561 17.9649 11.6708 18.3354C11.4856 18.7059 11.0351 18.8561 10.6646 18.6708L9 17.8385L3.33541 20.6708C3.10292 20.7871 2.82681 20.7746 2.6057 20.638C2.38459 20.5013 2.25 20.2599 2.25 20V7C2.25 6.71592 2.4105 6.45622 2.66459 6.32918L8.65107 3.33594C8.7553 3.28106 8.87402 3.25 9 3.25C9.12598 3.25 9.2447 3.28106 9.34893 3.33594L15 6.16148L20.6646 3.32918C20.8971 3.21293 21.1732 3.22536 21.3943 3.36201ZM3.75 7.46353L8.25 5.21353V16.5365L3.75 18.7865V7.46353Z" fill="white" fill-opacity="0.4"/>
<path id="Union_2" fill-rule="evenodd" clip-rule="evenodd" d="M14.75 17.5C14.75 16.5335 15.5335 15.75 16.5 15.75C17.4665 15.75 18.25 16.5335 18.25 17.5C18.25 18.4665 17.4665 19.25 16.5 19.25C15.5335 19.25 14.75 18.4665 14.75 17.5ZM16.5 14.25C14.7051 14.25 13.25 15.7051 13.25 17.5C13.25 19.2949 14.7051 20.75 16.5 20.75C17.1257 20.75 17.7102 20.5732 18.2061 20.2667L20.4697 22.5303C20.7626 22.8232 21.2374 22.8232 21.5303 22.5303C21.8232 22.2374 21.8232 21.7626 21.5303 21.4697L19.2667 19.2061C19.5732 18.7102 19.75 18.1257 19.75 17.5C19.75 15.7051 18.2949 14.25 16.5 14.25Z" fill="white" fill-opacity="0.4"/>
</g>
<defs>
<clipPath id="clip0_8805_24954">
<rect width="24" height="24" fill="white"/>
</clipPath>
</defs>
</svg>
