<svg width="24" height="24" viewBox="0 0 24 24" fill="none" xmlns="http://www.w3.org/2000/svg">
    <g id="Frame" clip-path="url(#clip0_8805_24929)">
        <path id="Vector" d="M5 6L12 3L19 6" stroke="white" stroke-width="1.5" stroke-linecap="round"
            stroke-linejoin="round" />
        <path id="Union" fill-rule="evenodd" clip-rule="evenodd"
            d="M3 9.25C2.58579 9.25 2.25 9.58579 2.25 10C2.25 10.4142 2.58579 10.75 3 10.75H3.25V20.25H3C2.58579 20.25 2.25 20.5858 2.25 21C2.25 21.4142 2.58579 21.75 3 21.75H4H20H21C21.4142 21.75 21.75 21.4142 21.75 21C21.75 20.5858 21.4142 20.25 21 20.25H20.75V10.75H21C21.4142 10.75 21.75 10.4142 21.75 10C21.75 9.58579 21.4142 9.25 21 9.25H20H4H3ZM19.25 10.75H4.75V20.25H19.25V10.75Z"
            fill="white" />
        <path id="Vector_2" d="M8 14V17" stroke="white" stroke-width="1.5" stroke-linecap="round"
            stroke-linejoin="round" />
        <path id="Vector_3" d="M12 14V17" stroke="white" stroke-width="1.5" stroke-linecap="round"
            stroke-linejoin="round" />
        <path id="Vector_4" d="M16 14V17" stroke="white" stroke-width="1.5" stroke-linecap="round"
            stroke-linejoin="round" />
    </g>
    <defs>
        <clipPath id="clip0_8805_24929">
            <rect width="24" height="24" fill="white" />
        </clipPath>
    </defs>
</svg>