<svg width="108" height="69" viewBox="0 0 108 69" fill="none" xmlns="http://www.w3.org/2000/svg">
    <g opacity="0.6">
        <path
            d="M54.0002 67.3481C83.8237 67.3481 108 62.0988 108 55.6233C108 49.1478 83.8237 43.8984 54.0002 43.8984C24.1767 43.8984 0 49.1478 0 55.6233C0 62.0988 24.1767 67.3481 54.0002 67.3481Z"
            fill="#EFEFEF" />
        <path
            d="M74.8437 4.67473L74.8881 4.74583L74.9439 4.80852L91.8128 23.79V37.8867H16.1875V23.7916L33.0565 4.80678L33.112 4.74433L33.1563 4.67354C33.8539 3.56024 34.7726 3.03711 35.5945 3.03711H72.4058C73.2275 3.03711 74.146 3.56002 74.8437 4.67473Z"
            fill="#BEBEBE" stroke="#D7D9DD" stroke-width="2" />
        <path
            d="M70.2221 28.7219C70.2221 26.0335 71.8995 23.8142 73.9802 23.8125H92.8128V54.1916C92.8128 57.7476 90.5853 60.662 87.8346 60.662H20.1656C17.415 60.662 15.1875 57.7459 15.1875 54.1916V23.8125H34.0201C36.1008 23.8125 37.7781 26.0285 37.7781 28.7168V28.7537C37.7781 31.442 39.4741 33.6128 41.5531 33.6128H66.4472C68.5262 33.6128 70.2221 31.4219 70.2221 28.7336V28.7219Z"
            fill="#D7D9DD" />
    </g>
</svg>