<svg width="102" height="40" viewBox="0 0 102 40" fill="none" xmlns="http://www.w3.org/2000/svg">
    <g clip-path="url(#clip0_5091_54121)">
        <path d="M11.4448 31.4826L8.51758 28.5554L12.5056 24.5674L15.4328 27.4946L11.4448 31.4826Z"
            fill="url(#paint0_linear_5091_54121)" />
        <path
            d="M10.8242 26.2489C11.6663 27.3491 12.6512 28.334 13.7514 29.1761L15.4328 27.4946L12.5056 24.5674L10.8242 26.2489Z"
            fill="url(#paint1_linear_5091_54121)" />
        <path
            d="M24.3728 31.2535C33.0033 31.2535 39.9996 24.2572 39.9996 15.6267C39.9996 6.99633 33.0033 0 24.3728 0C15.7424 0 8.74609 6.99633 8.74609 15.6267C8.74609 24.2572 15.7424 31.2535 24.3728 31.2535Z"
            fill="url(#paint2_linear_5091_54121)" />
        <path
            d="M24.3731 0C23.8434 0 23.3199 0.0266667 22.8037 0.0781961C30.6971 0.865333 36.861 7.52604 36.861 15.6267C36.861 23.7275 30.6971 30.3881 22.8037 31.1753C23.3199 31.2267 23.8434 31.2535 24.3731 31.2535C33.0036 31.2535 39.9999 24.2571 39.9999 15.6267C39.9999 6.99639 33.0036 0 24.3731 0Z"
            fill="url(#paint3_linear_5091_54121)" />
        <path
            d="M24.3733 26.6645C30.469 26.6645 35.4106 21.7229 35.4106 15.6272C35.4106 9.53143 30.469 4.58984 24.3733 4.58984C18.2775 4.58984 13.3359 9.53143 13.3359 15.6272C13.3359 21.7229 18.2775 26.6645 24.3733 26.6645Z"
            fill="url(#paint4_linear_5091_54121)" />
        <path
            d="M24.3731 4.58984C23.8403 4.58984 23.3164 4.62843 22.8037 4.70145C28.156 5.46349 32.2716 10.0644 32.2716 15.6273C32.2716 21.1902 28.156 25.791 22.8037 26.5531C23.3164 26.6261 23.8403 26.6647 24.3731 26.6647C30.4689 26.6647 35.4105 21.7231 35.4105 15.6273C35.4105 9.53157 30.4689 4.58984 24.3731 4.58984Z"
            fill="url(#paint5_linear_5091_54121)" />
        <path
            d="M1.19679 38.8032C-0.580076 37.0264 -0.346978 34.0819 1.68722 32.6067L9.18063 27.1727C9.66385 26.8223 10.33 26.875 10.752 27.297L12.7029 29.248C13.1249 29.67 13.1777 30.3362 12.8273 30.8193L7.39326 38.3127C5.91812 40.347 2.97365 40.5801 1.19679 38.8032Z"
            fill="#0048D3" />
        <path
            d="M12.7026 29.248L10.7517 27.297C10.3297 26.875 9.66349 26.8223 9.18036 27.1727L8.18098 27.8974L9.53157 29.248C9.95361 29.67 10.0063 30.3362 9.65596 30.8193L4.22193 38.3127C3.76326 38.9452 3.16247 39.4033 2.49902 39.6813C4.18844 40.3925 6.23973 39.9032 7.39306 38.3127L12.8271 30.8193C13.1775 30.3361 13.1247 29.67 12.7026 29.248Z"
            fill="#002AB5" />
    </g>
    <path
        d="M56.224 23.312C56.224 24.384 56.576 25.184 57.28 25.712C58 26.224 58.912 26.48 60.016 26.48C60.544 26.48 61.032 26.432 61.48 26.336C61.944 26.224 62.368 26 62.752 25.664C63.152 25.328 63.352 24.888 63.352 24.344C63.352 24.04 63.272 23.768 63.112 23.528C62.968 23.288 62.8 23.096 62.608 22.952C62.416 22.792 62.12 22.64 61.72 22.496C61.32 22.336 60.984 22.224 60.712 22.16C60.44 22.08 60.032 21.976 59.488 21.848C58.944 21.704 58.536 21.592 58.264 21.512C57.544 21.336 56.912 21.144 56.368 20.936C55.84 20.712 55.312 20.416 54.784 20.048C54.256 19.68 53.848 19.208 53.56 18.632C53.288 18.056 53.152 17.392 53.152 16.64C53.152 14.992 53.792 13.72 55.072 12.824C56.352 11.912 57.848 11.456 59.56 11.456C60.824 11.456 61.952 11.632 62.944 11.984C63.936 12.336 64.76 12.944 65.416 13.808C66.088 14.656 66.424 15.712 66.424 16.976H62.776C62.68 15.248 61.552 14.384 59.392 14.384C58.704 14.384 58.096 14.544 57.568 14.864C57.056 15.184 56.8 15.672 56.8 16.328C56.8 16.968 57.072 17.416 57.616 17.672C58.176 17.912 59.608 18.328 61.912 18.92C65.304 19.624 67 21.288 67 23.912C67 25.544 66.376 26.864 65.128 27.872C63.896 28.88 62.144 29.384 59.872 29.384C58.896 29.384 57.976 29.264 57.112 29.024C56.248 28.784 55.472 28.432 54.784 27.968C54.096 27.488 53.552 26.848 53.152 26.048C52.752 25.248 52.56 24.336 52.576 23.312H56.224ZM73.0099 18.8H76.8259C78.3619 18.8 79.1299 18.12 79.1299 16.76C79.1299 15.448 78.2659 14.792 76.5379 14.792H73.0099V18.8ZM69.2419 11.864H77.3059C80.9539 11.864 82.7779 13.28 82.7779 16.112C82.7779 17.744 82.0019 18.936 80.4499 19.688C81.4899 19.976 82.2739 20.504 82.8019 21.272C83.3299 22.024 83.5939 22.944 83.5939 24.032C83.5939 25.664 83.0099 26.904 81.8419 27.752C80.6739 28.584 79.2419 29 77.5459 29H69.2419V11.864ZM73.0099 26.072H77.0419C78.8979 26.072 79.8259 25.32 79.8259 23.816C79.8259 22.184 78.9219 21.368 77.1139 21.368H73.0099V26.072ZM90.4604 22.376H94.9004L92.7404 16.088H92.6924L90.4604 22.376ZM90.8204 11.864H94.6844L101.092 29H97.1804L95.8844 25.184H89.4764L88.1324 29H84.3404L90.8204 11.864Z"
        fill="#ffffff" />
    <defs>
        <linearGradient id="paint0_linear_5091_54121" x1="7.92173" y1="28.025" x2="15.5199" y2="28.025"
            gradientUnits="userSpaceOnUse">
            <stop stop-color="#B5ADB6" />
            <stop offset="0.5106" stop-color="#918291" />
            <stop offset="1" stop-color="#554E56" />
        </linearGradient>
        <linearGradient id="paint1_linear_5091_54121" x1="5.30202" y1="26.8718" x2="14.0574" y2="26.8718"
            gradientUnits="userSpaceOnUse">
            <stop stop-color="#B5ADB6" />
            <stop offset="0.5106" stop-color="#918291" />
            <stop offset="1" stop-color="#554E56" />
        </linearGradient>
        <linearGradient id="paint2_linear_5091_54121" x1="8.74609" y1="15.6267" x2="39.9996" y2="15.6267"
            gradientUnits="userSpaceOnUse">
            <stop stop-color="#2772FF" />
            <stop offset="1" stop-color="#29BCE2" />
        </linearGradient>
        <linearGradient id="paint3_linear_5091_54121" x1="22.8037" y1="15.6267" x2="39.9999" y2="15.6267"
            gradientUnits="userSpaceOnUse">
            <stop stop-color="#2772FF" />
            <stop offset="1" stop-color="#29BCE2" />
        </linearGradient>
        <linearGradient id="paint4_linear_5091_54121" x1="14.0421" y1="15.6272" x2="32.9882" y2="15.6272"
            gradientUnits="userSpaceOnUse">
            <stop stop-color="white" />
            <stop offset="1" stop-color="#F9F3F1" />
        </linearGradient>
        <linearGradient id="paint5_linear_5091_54121" x1="23.8663" y1="15.6272" x2="51.6032" y2="15.6272"
            gradientUnits="userSpaceOnUse">
            <stop stop-color="#F8F6F7" />
            <stop offset="1" stop-color="#D1CEEB" />
        </linearGradient>
        <clipPath id="clip0_5091_54121">
            <rect width="40" height="40" fill="white" />
        </clipPath>
    </defs>
</svg>