<svg width="60" height="60" viewBox="0 0 60 60" fill="none" xmlns="http://www.w3.org/2000/svg">
<rect x="1" y="1" width="58" height="58" rx="29" fill="url(#paint0_linear_8805_24967)"/>
<path d="M29.838 41.3C27.258 41.3 24.198 40.31 22.308 37.37L26.148 34.07C27.198 35.72 28.728 36.5 29.958 36.5C31.398 36.5 32.088 35.78 32.088 34.97C32.088 34.22 31.488 33.83 29.568 32.72C27.078 31.25 24.348 29.84 24.348 26.24C24.348 22.04 27.648 19.4 31.788 19.4C34.308 19.4 37.008 20.45 38.478 22.76L34.668 25.94C33.498 24.44 32.538 24.17 31.638 24.17C30.678 24.17 29.988 24.77 30.018 25.61C30.018 26.24 30.318 26.87 31.908 27.8C35.118 29.72 37.758 30.74 37.758 34.13C37.758 38.63 34.548 41.3 29.838 41.3Z" fill="white"/>
<rect x="1" y="1" width="58" height="58" rx="29" stroke="white" stroke-width="2"/>
<defs>
<linearGradient id="paint0_linear_8805_24967" x1="30" y1="2" x2="30" y2="58" gradientUnits="userSpaceOnUse">
<stop stop-color="#5888D8"/>
<stop offset="1" stop-color="#34B2F3"/>
</linearGradient>
</defs>
</svg>
