<svg width="86" height="86" viewBox="0 0 86 86" fill="none" xmlns="http://www.w3.org/2000/svg">
<g clip-path="url(#clip0_2001:7195)">
<path fill-rule="evenodd" clip-rule="evenodd" d="M66 17.6367V7C66 3.13401 62.866 0 59 0H51.1743H47H17.3539C13.8378 0 11 3.376 11 7.55859V78.4414C11 82.6237 13.8378 86 17.3539 86H59.6461C63.1622 86 66 82.6237 66 78.4414V19V17.6367Z" fill="#EBF8FF"/>
<circle cx="39" cy="78" r="4" fill="#AECDE0"/>
<path d="M83.7704 24.1542C80.9489 21.2819 75.9098 21.2819 73.0876 24.1542L70.5177 26.7747L68.7036 28.5382C67.6955 29.4956 67.6955 31.1081 68.7036 32.0655L72.2812 35.6434L75.8593 39.221C76.766 40.2288 78.4797 40.2288 79.3864 39.221L81.2005 37.4575L83.7704 34.837C86.7433 32.015 86.7433 26.9759 83.7704 24.1542Z" fill="#1689FC"/>
<path d="M55.0474 52.8769L49.857 47.6865C49.7567 47.5859 49.6558 47.5859 49.555 47.6865L49.4043 47.7874C49.1016 48.0898 48.8999 48.4425 48.799 48.7952L45.2214 59.5285C44.8683 60.5361 45.171 61.4935 45.8261 62.0984V62.1484C46.5315 62.8035 47.4888 63.0555 48.396 62.7029L59.1292 59.125C59.4823 59.024 59.8347 58.8227 60.1368 58.5203L60.2378 58.4194C60.3387 58.3187 60.3387 58.218 60.2378 58.117C58.5751 56.4042 56.761 54.59 55.0474 52.8769Z" fill="#FEDBAB"/>
<path d="M55.0475 52.8769C56.7613 54.59 58.5752 56.4042 60.2379 58.1173C60.3388 58.2183 60.3388 58.3191 60.2379 58.4197L60.1369 58.5206C59.8349 58.823 59.4825 59.0244 59.1293 59.1253L48.3961 62.7032C47.4887 63.0556 46.5316 62.8038 45.8262 62.1488V62.0984L55.0475 52.8769Z" fill="#FEC478"/>
<path d="M83.7705 34.8369L81.2004 37.4573L79.3863 39.2208C78.4796 40.2287 76.7659 40.2287 75.8592 39.2208L72.2812 35.6433L83.7705 24.1541C86.7434 26.9759 86.7434 32.015 83.7705 34.8369Z" fill="#136EF1"/>
<path d="M81.2003 37.4573L79.3863 39.2208C69.4091 49.1479 72.7344 45.822 63.7647 54.7917C63.7647 54.8923 60.1871 58.47 60.1367 58.5206C59.8347 58.8229 59.4823 59.0243 59.1291 59.1253L48.7988 48.7952C48.8998 48.4425 49.1015 48.0897 49.4042 47.7874C49.4546 47.737 53.0321 44.1591 53.1331 44.1591C59.6835 37.6083 56.4584 40.8839 68.7036 28.5382L70.4671 26.7241L81.2003 37.4573Z" fill="#F8BF6B"/>
<path d="M81.2003 37.4573L79.3862 39.2208C69.409 49.1479 72.7343 45.822 63.7646 54.7917C63.7646 54.8923 60.1871 58.47 60.1367 58.5206C59.8347 58.8229 59.4823 59.0243 59.129 59.1253L53.989 53.9853L75.8592 32.1159L81.2003 37.4573Z" fill="#DE9B39"/>
<path d="M55.6876 30.2344H20.494C17.1687 30.2344 17.1687 25.1953 20.494 25.1953H55.6876C59.0131 25.1953 59.0131 30.2344 55.6876 30.2344Z" fill="#0C5CA8" fill-opacity="0.5"/>
<path d="M45.6095 40.3125H20.494C17.1687 40.3125 17.1687 35.2734 20.494 35.2734H45.6095C48.9349 35.2734 48.9349 40.3125 45.6095 40.3125Z" fill="#0C5CA8" fill-opacity="0.5"/>
<path d="M45.6095 50.3906H20.494C17.1687 50.3906 17.1687 45.3516 20.494 45.3516H45.6095C48.9349 45.3516 48.9349 50.3906 45.6095 50.3906Z" fill="#0C5CA8" fill-opacity="0.5"/>
<path d="M53.2709 69H36.729C33.0903 69 33.0903 64 36.729 64H53.2709C56.9097 64 56.9097 69 53.2709 69Z" fill="#0C5CA8" fill-opacity="0.5"/>
<path d="M45.6094 50.3906H40.5703V45.3516H45.6094C48.9348 45.3516 48.9348 50.3906 45.6094 50.3906Z" fill="#1689FC"/>
<path d="M45.6094 40.3125H40.5703V35.2734H45.6094C48.9348 35.2734 48.9348 40.3125 45.6094 40.3125Z" fill="#1689FC"/>
<path d="M53.6875 69.0391H38.5703V64H53.6875C57.0129 64 57.0129 69.0391 53.6875 69.0391Z" fill="#1689FC"/>
<path d="M55.6875 30.2344H40.5703V25.1953H55.6875C59.0129 25.1953 59.0129 30.2344 55.6875 30.2344Z" fill="#1689FC"/>
<rect x="28" y="5" width="22" height="5" rx="2.5" fill="#AECDE0"/>
</g>
<defs>
<clipPath id="clip0_2001:7195">
<rect width="86" height="86" fill="white"/>
</clipPath>
</defs>
</svg>
