<svg width="86" height="86" viewBox="0 0 86 86" fill="none"
  xmlns="http://www.w3.org/2000/svg">
  <defs>
    <linearGradient id="paint0_linear" x1="-2.67611e-07" y1="9.5" x2="81" y2="82.5" gradientUnits="userSpaceOnUse">
      <stop stop-color="#F45959"/>
      <stop offset="1" stop-color="#BE2A2A"/>
    </linearGradient>
  </defs>
  <path d="M2.49988 43C2.49988 20.624 20.7246 2.5 42.7941 2.5C65.2907 2.5 83.4999 20.6396 83.4999 43C83.4999 65.345 64.8948 83.5 42.7941 83.5C20.7246 83.5 2.49988 65.376 2.49988 43Z" fill="url(#paint0_linear)" stroke="white" stroke-width="5"/>
  <path fill-rule="evenodd" clip-rule="evenodd" d="M27.8724 58.1277C28.5374 58.7926 29.2023 59.1251 30.1998 59.1251C30.8647 59.1251 31.8621 58.7926 32.5271 58.1277L42.8339 47.8209L53.1406 58.1275C53.8055 58.7925 54.4705 59.125 55.4679 59.125C56.2572 59.125 56.8382 58.9168 57.5406 58.6652C57.7259 58.5988 57.9195 58.5294 58.1277 58.46C59.4576 57.1301 59.4576 55.1353 58.1277 53.8054L47.4886 43.1662L58.1277 32.5271C59.4576 31.1972 59.4576 29.2023 58.1277 27.8724C56.7978 26.5425 54.8029 26.5425 53.473 27.8724L42.8339 38.5116L32.5271 28.2048C31.1972 26.8749 29.2024 26.8749 27.8725 28.2048C26.5426 29.5347 26.5426 31.5295 27.8725 32.8594L38.1793 43.1662L27.8724 53.473C26.5425 54.8029 26.5425 56.7978 27.8724 58.1277Z" fill="white"/>
</svg>
