<svg width="47" height="24" viewBox="0 0 47 24" fill="none" xmlns="http://www.w3.org/2000/svg">
<path d="M29.0043 17V6.81818H35.6264V8.36435H30.8487V11.1286H35.2834V12.6747H30.8487V15.4538H35.6662V17H29.0043ZM45.8754 6.81818V17H44.2347L39.4371 10.0646H39.3526V17H37.5082V6.81818H39.1587L43.9513 13.7585H44.0408V6.81818H45.8754Z" fill="white"/>
<g clip-path="url(#clip0_1568_12689)">
<path d="M18.75 24H5.25C2.3505 24 0 21.6495 0 18.75V5.25C0 2.3505 2.3505 0 5.25 0H18.75C21.6495 0 24 2.3505 24 5.25V18.75C24 21.6495 21.6495 24 18.75 24Z" fill="#41479B"/>
<path d="M24 18.7495V17.597L20.2773 15.1579H24V13.8947H13.8948V24H15.1579V16.3341L23.1704 21.5836C23.4541 21.1418 23.6732 20.6545 23.8149 20.1354" fill="#F5F5F5"/>
<path d="M0.353016 20.6458C0.480891 20.9758 0.640922 21.2897 0.829641 21.5836L8.84208 16.3341V24H10.1052V13.8947H0V15.1579H3.72277L0 17.597V18.75C0 18.9519 0.0118125 19.1509 0.0339844 19.3469" fill="#F5F5F5"/>
<path d="M0 5.42845V6.40303L3.72277 8.84212H0V10.1053H10.1053V0H8.84212V7.66594L0.829641 2.41641C0.51825 2.90123 0.284672 3.44072 0.145969 4.01719" fill="#F5F5F5"/>
<path d="M23.6401 3.33605C23.5134 3.01266 23.3557 2.70483 23.1704 2.41636L15.1579 7.66594V0H13.8948V10.1053H24V8.84212H20.2773L24 6.40303V5.25C24 5.04094 23.9874 4.83478 23.9637 4.63209" fill="#F5F5F5"/>
<path d="M13.8947 0H10.1053V10.1053H0V13.8947H10.1053V24H13.8947V13.8947H24V10.1053H13.8947V0Z" fill="#FF4B55"/>
<path d="M6.48722 15.1579L0.0339355 19.3469C0.0852168 19.7998 0.193967 20.2353 0.353014 20.6458L8.80734 15.1579L6.48722 15.1579Z" fill="#FF4B55"/>
<path d="M16.1469 15.1579L23.8149 20.1354C23.9354 19.694 24.0001 19.2296 24.0001 18.75V18.7495L18.467 15.1579L16.1469 15.1579Z" fill="#FF4B55"/>
<path d="M7.57894 8.84212L0.145969 4.01718C0.0507656 4.41262 0 4.82535 0 5.24999V5.42845L5.25881 8.84212H7.57894Z" fill="#FF4B55"/>
<path d="M17.4779 8.84212L23.9635 4.63209C23.9105 4.18003 23.8004 3.7455 23.64 3.33609L15.1578 8.84212H17.4779Z" fill="#FF4B55"/>
</g>
<defs>
<clipPath id="clip0_1568_12689">
<rect width="24" height="24" fill="white"/>
</clipPath>
</defs>
</svg>
