<svg width="32" height="32" viewBox="0 0 32 32" fill="none" xmlns="http://www.w3.org/2000/svg">
<path fill-rule="evenodd" clip-rule="evenodd" d="M2.82353 11.8824C2.36894 11.8824 2 11.5134 2 11.0588V7.76471C2 4.58588 4.58588 2 7.76471 2H11.0588C11.5134 2 11.8824 2.36894 11.8824 2.82353C11.8824 3.27812 11.5134 3.64706 11.0588 3.64706H7.76471C5.49506 3.64706 3.64706 5.49341 3.64706 7.76471V11.0588C3.64706 11.5134 3.27812 11.8824 2.82353 11.8824ZM29.1765 11.8824C28.7219 11.8824 28.3529 11.5134 28.3529 11.0588V7.76471C28.3529 5.49341 26.5049 3.64706 24.2353 3.64706H20.9412C20.4866 3.64706 20.1176 3.27812 20.1176 2.82353C20.1176 2.36894 20.4866 2 20.9412 2H24.2353C27.4141 2 30 4.58588 30 7.76471V11.0588C30 11.5134 29.6311 11.8824 29.1765 11.8824ZM11.0588 15.1765C10.6042 15.1765 10.2353 14.8075 10.2353 14.3529V11.0588C10.2353 10.6042 10.6042 10.2353 11.0588 10.2353C11.5134 10.2353 11.8824 10.6042 11.8824 11.0588V14.3529C11.8824 14.8075 11.5134 15.1765 11.0588 15.1765ZM20.9412 15.1765C20.4866 15.1765 20.1176 14.8075 20.1176 14.3529V11.0588C20.1176 10.6042 20.4866 10.2353 20.9412 10.2353C21.3958 10.2353 21.7647 10.6042 21.7647 11.0588V14.3529C21.7647 14.8075 21.3958 15.1765 20.9412 15.1765ZM14.3529 18.4706C13.8984 18.4706 13.5294 18.1016 13.5294 17.6471C13.5294 17.1925 13.8984 16.8235 14.3529 16.8235C14.8075 16.8235 15.1765 16.4529 15.1765 16V11.0588C15.1765 10.6042 15.5454 10.2353 16 10.2353C16.4546 10.2353 16.8235 10.6042 16.8235 11.0588V16C16.8235 17.3621 15.7151 18.4706 14.3529 18.4706ZM16 23.4118C14.1355 23.4118 12.5544 22.776 11.2993 21.5242C10.9781 21.2014 10.9781 20.6809 11.2993 20.3581C11.6221 20.0369 12.1426 20.0369 12.4654 20.3581C13.4108 21.3052 14.5671 21.7647 16 21.7647C17.4329 21.7647 18.5892 21.3052 19.5346 20.3581C19.8574 20.0369 20.3779 20.0369 20.7007 20.3581C21.0219 20.6809 21.0219 21.2014 20.7007 21.5242C19.4456 22.776 17.8645 23.4118 16 23.4118ZM11.0588 30H7.76471C4.58588 30 2 27.4141 2 24.2353V20.9412C2 20.4866 2.36894 20.1176 2.82353 20.1176C3.27812 20.1176 3.64706 20.4866 3.64706 20.9412V24.2353C3.64706 26.5066 5.49506 28.3529 7.76471 28.3529H11.0588C11.5134 28.3529 11.8824 28.7219 11.8824 29.1765C11.8824 29.6311 11.5134 30 11.0588 30ZM24.2353 30H20.9412C20.4866 30 20.1176 29.6311 20.1176 29.1765C20.1176 28.7219 20.4866 28.3529 20.9412 28.3529H24.2353C26.5049 28.3529 28.3529 26.5066 28.3529 24.2353V20.9412C28.3529 20.4866 28.7219 20.1176 29.1765 20.1176C29.6311 20.1176 30 20.4866 30 20.9412V24.2353C30 27.4141 27.4141 30 24.2353 30Z" fill="white"/>
</svg>
