<svg width="21" height="20" viewBox="0 0 21 20" fill="none" xmlns="http://www.w3.org/2000/svg">
<path d="M11.9097 9.99915L16.2062 5.71268C16.3943 5.52453 16.5 5.26935 16.5 5.00326C16.5 4.73718 16.3943 4.482 16.2062 4.29385C16.018 4.1057 15.7628 4 15.4967 4C15.2307 4 14.9755 4.1057 14.7873 4.29385L10.5009 8.59031L6.21439 4.29385C6.02624 4.1057 5.77105 4 5.50497 4C5.23889 4 4.9837 4.1057 4.79555 4.29385C4.60741 4.482 4.50171 4.73718 4.50171 5.00326C4.50171 5.26935 4.60741 5.52453 4.79555 5.71268L9.09201 9.99915L4.79555 14.2856C4.7019 14.3785 4.62757 14.489 4.57684 14.6108C4.52612 14.7325 4.5 14.8631 4.5 14.995C4.5 15.1269 4.52612 15.2575 4.57684 15.3793C4.62757 15.501 4.7019 15.6116 4.79555 15.7044C4.88844 15.7981 4.99895 15.8724 5.12071 15.9232C5.24247 15.9739 5.37307 16 5.50497 16C5.63687 16 5.76747 15.9739 5.88923 15.9232C6.01099 15.8724 6.1215 15.7981 6.21439 15.7044L10.5009 11.408L14.7873 15.7044C14.8802 15.7981 14.9907 15.8724 15.1125 15.9232C15.2342 15.9739 15.3648 16 15.4967 16C15.6286 16 15.7592 15.9739 15.881 15.9232C16.0028 15.8724 16.1133 15.7981 16.2062 15.7044C16.2998 15.6116 16.3741 15.501 16.4249 15.3793C16.4756 15.2575 16.5017 15.1269 16.5017 14.995C16.5017 14.8631 16.4756 14.7325 16.4249 14.6108C16.3741 14.489 16.2998 14.3785 16.2062 14.2856L11.9097 9.99915Z" fill="#6D6D6D"/>
</svg>
