<svg width="16" height="16" viewBox="0 0 16 16" fill="none" xmlns="http://www.w3.org/2000/svg">
<path d="M2.86714 12.1966C2.60679 12.4569 2.60679 12.879 2.86714 13.1394C3.12749 13.3997 3.5496 13.3997 3.80995 13.1394L8.00521 8.94411L12.2005 13.1394C12.4608 13.3997 12.8829 13.3997 13.1433 13.1394C13.4036 12.879 13.4036 12.4569 13.1433 12.1966L8.94802 8.0013L13.1433 3.80604C13.4036 3.54569 13.4036 3.12358 13.1433 2.86323C12.8829 2.60288 12.4608 2.60288 12.2005 2.86323L8.00521 7.05849L3.80995 2.86323C3.5496 2.60288 3.12749 2.60288 2.86714 2.86323C2.60679 3.12358 2.60679 3.54569 2.86714 3.80604L7.0624 8.0013L2.86714 12.1966Z" fill="#E73535"/>
</svg>
