<svg width="251" height="224" viewBox="0 0 251 224" fill="none" xmlns="http://www.w3.org/2000/svg">
<path opacity="0.2" d="M211.249 160.527H205.088L194 166.952L205.088 173.378H211.249L222.336 166.952L211.249 160.527Z" fill="#438BE3"/>
<path d="M222.338 154.102L211.251 160.527L200.164 154.102L211.251 147.676L222.338 154.102Z" fill="#FF9326"/>
<path d="M211.251 160.526V173.377L200.164 166.951V154.102L211.251 160.526Z" fill="#FFA100"/>
<path d="M222.337 166.951L211.25 173.377V160.526L222.337 154.102V166.951Z" fill="#D97C02"/>
<path opacity="0.2" d="M66.8185 95.0391H60.6575L49.5703 101.464L60.6575 107.89H66.8185L77.9068 101.464L66.8185 95.0391Z" fill="#438BE3"/>
<path d="M77.9099 88.6135L66.8216 95.0384L55.7344 88.6135L66.8216 82.1875L77.9099 88.6135Z" fill="#438BE3"/>
<path d="M66.8216 95.0382V107.889L55.7344 101.463V88.6133L66.8216 95.0382Z" fill="#1159B1"/>
<path d="M77.9086 101.463L66.8203 107.889V95.0382L77.9086 88.6133V101.463Z" fill="#2A72CA"/>
<g opacity="0.2">
<path d="M59.2 160.242C60.349 160.91 60.3625 161.998 59.2214 162.663L41.0047 173.289C39.8636 173.956 37.9829 173.956 36.8339 173.289L18.4988 162.663C17.3498 161.998 17.343 160.904 18.4853 160.239L36.7008 149.614C37.8419 148.949 39.7148 148.953 40.8649 149.618L59.2 160.242Z" fill="#438BE3"/>
</g>
<path d="M38.9348 176.554C37.9471 176.554 37.0191 176.331 36.3189 175.924L14.1354 163.07C13.4037 162.646 13 162.067 13 161.443C13 160.823 13.3969 160.249 14.1197 159.829L36.1599 146.974C36.8511 146.571 37.7734 146.348 38.7555 146.348C39.7432 146.348 40.6735 146.572 41.3748 146.978L63.556 159.832C64.2912 160.259 64.6971 160.837 64.6971 161.462C64.6982 162.079 64.3024 162.649 63.5831 163.069L41.5417 175.924C40.8483 176.331 39.9214 176.554 38.9348 176.554ZM38.7544 146.704C37.8343 146.704 36.9751 146.909 36.3369 147.281L14.2967 160.137C13.6878 160.491 13.3529 160.955 13.3541 161.443C13.3541 161.935 13.6946 162.404 14.3125 162.761L36.4959 175.615C37.142 175.99 38.0079 176.197 38.9337 176.197C39.8594 176.197 40.722 175.991 41.3635 175.617L63.4049 162.761C64.0093 162.408 64.343 161.948 64.3419 161.463C64.3419 160.971 63.9991 160.501 63.3778 160.141L41.1978 147.287C40.5483 146.911 39.6812 146.704 38.7544 146.704Z" fill="#0080FF"/>
<path d="M59.217 141.548L41.0003 152.174C39.8593 152.839 37.9785 152.839 36.8295 152.174L18.4944 141.55C17.916 141.213 17.6273 140.772 17.6296 140.328L17.6172 154.286C17.6161 154.728 17.9047 155.171 18.4832 155.506L36.8183 166.132C37.9672 166.798 39.848 166.798 40.9891 166.132L59.2058 155.506C59.7707 155.178 60.0526 154.743 60.0537 154.307L60.0661 140.351C60.0638 140.784 59.7819 141.219 59.217 141.548Z" fill="#B4D1F4"/>
<path d="M59.2 139.126C60.349 139.792 60.3625 140.882 59.2214 141.546L41.0047 152.172C39.8636 152.837 37.9829 152.837 36.8339 152.172L18.4988 141.548C17.3498 140.882 17.343 139.788 18.4853 139.123L36.7008 128.498C37.8419 127.832 39.7148 127.835 40.8649 128.502L59.2 139.126Z" fill="#D9E8F9"/>
<path opacity="0.2" d="M182.919 199.838C183.838 200.37 183.849 201.241 182.936 201.773L168.366 210.271C167.453 210.804 165.949 210.804 165.029 210.271L150.364 201.774C149.446 201.241 149.44 200.366 150.354 199.834L164.925 191.336C165.837 190.803 167.335 190.805 168.255 191.338L182.919 199.838Z" fill="#438BE3"/>
<path opacity="0.2" d="M213.539 194.351C214.023 194.63 214.027 195.089 213.548 195.368L205.889 199.836C205.408 200.116 204.618 200.116 204.135 199.836L196.426 195.369C195.944 195.089 195.94 194.629 196.421 194.349L204.08 189.881C204.559 189.601 205.348 189.603 205.831 189.883L213.539 194.351Z" fill="#438BE3"/>
<path opacity="0.2" d="M52.4768 113.877C52.9605 114.156 52.9661 114.615 52.4858 114.894L44.8263 119.362C44.346 119.642 43.5556 119.642 43.073 119.362L35.3639 114.895C34.8813 114.615 34.878 114.155 35.3583 113.876L43.0177 109.409C43.4969 109.128 44.2851 109.13 44.7677 109.41L52.4768 113.877Z" fill="#438BE3"/>
<path opacity="0.2" d="M82.2953 116.529C82.5434 116.672 82.5468 116.908 82.2998 117.05L78.3669 119.344C78.12 119.488 77.7141 119.488 77.466 119.344L73.5072 117.05C73.2591 116.907 73.258 116.67 73.5038 116.526L77.4367 114.232C77.6825 114.089 78.0873 114.09 78.3354 114.233L82.2953 116.529Z" fill="#438BE3"/>
<path opacity="0.2" d="M94.975 81.4035C95.2231 81.5473 95.2265 81.7826 94.9795 81.9252L91.0466 84.2193C90.7997 84.363 90.3938 84.363 90.1457 84.2193L86.1869 81.9252C85.9388 81.7815 85.9377 81.545 86.1835 81.4013L90.1164 79.1072C90.3622 78.9635 90.767 78.9646 91.0151 79.1084L94.975 81.4035Z" fill="#438BE3"/>
<path opacity="0.2" d="M196.819 210.41C197.067 210.554 197.07 210.789 196.823 210.933L192.89 213.227C192.643 213.371 192.238 213.371 191.989 213.227L188.031 210.933C187.783 210.789 187.781 210.553 188.027 210.409L191.96 208.115C192.206 207.971 192.611 207.972 192.859 208.116L196.819 210.41Z" fill="#438BE3"/>
<path opacity="0.2" d="M238.741 145.402C238.989 145.546 238.992 145.782 238.745 145.925L234.812 148.219C234.565 148.363 234.159 148.363 233.911 148.219L229.953 145.925C229.704 145.782 229.703 145.545 229.949 145.401L233.882 143.107C234.128 142.964 234.533 142.965 234.781 143.108L238.741 145.402Z" fill="#438BE3"/>
<path opacity="0.2" d="M140.178 213.074C140.426 213.218 140.43 213.453 140.183 213.597L136.25 215.891C136.003 216.035 135.597 216.035 135.349 215.891L131.39 213.597C131.142 213.453 131.141 213.217 131.387 213.073L135.32 210.779C135.565 210.635 135.97 210.637 136.218 210.78L140.178 213.074Z" fill="#438BE3"/>
<g clip-path="url(#clip0_5286_52306)">
<path d="M79.2437 186.156C78.8856 186.156 78.5238 186.065 78.1917 185.874L73.017 182.89C70.4639 181.418 69 179.25 69 176.94C69 174.633 70.4639 172.464 73.017 170.991C77.6184 168.336 84.8266 168.336 89.428 170.991L94.6028 173.975C95.6121 174.557 95.9572 175.845 95.3746 176.853C94.792 177.861 93.5025 178.206 92.4932 177.624L87.3184 174.64C84.014 172.735 78.431 172.735 75.1266 174.64C73.9317 175.33 73.2192 176.188 73.2192 176.94C73.2192 177.691 73.9317 178.551 75.1266 179.24L80.3013 182.224C81.3106 182.806 81.6557 184.095 81.0731 185.103C80.6817 185.779 79.9729 186.156 79.2437 186.156Z" fill="url(#paint0_linear_5286_52306)"/>
<path d="M103.209 200.621L124.184 188.523C126.869 186.976 126.533 184.27 123.433 182.481L107.358 173.21C104.257 171.422 99.5668 171.227 96.882 172.776L75.9066 184.876C73.2218 186.424 73.5576 189.13 76.658 190.918L92.7333 200.189C95.8337 201.976 100.524 202.171 103.209 200.621Z" fill="#D8EBFF"/>
<path d="M74.0956 187.465C74.0771 188.662 74.9454 189.93 76.6579 190.918L92.7332 200.189C95.8336 201.977 100.524 202.172 103.209 200.622L124.184 188.525C125.401 187.822 125.995 186.883 125.995 185.898H125.997V193.64L125.977 193.627C126.116 194.723 125.529 195.789 124.184 196.563L103.209 208.661C100.524 210.208 95.8336 210.016 92.7332 208.227L76.6579 198.956C74.9788 197.987 74.1123 196.75 74.0956 195.574L74.0938 195.575V187.463L74.0956 187.465Z" fill="#A5CDF5"/>
<path d="M76.6579 197.731L92.7332 207.002C95.8336 208.791 100.524 208.985 103.209 207.436L124.184 195.338C125.529 194.563 126.116 193.498 125.977 192.402L125.997 192.415V193.64L125.977 193.627C126.116 194.723 125.529 195.789 124.184 196.563L103.209 208.661C100.524 210.209 95.8336 210.016 92.7332 208.227L76.6579 198.956C74.9788 197.987 74.1123 196.751 74.0956 195.574L74.0938 195.575V194.35L74.0956 194.348C74.1123 195.524 74.9788 196.762 76.6579 197.731Z" fill="#D9E8F9"/>
<path d="M93.8445 187.62C94.3474 187.91 94.9207 188.138 95.5311 188.303C96.8837 188.676 98.4255 188.743 99.8449 188.502L100.823 189.067L103.046 190.35C104.224 191.028 106.107 191.052 107.233 190.405C108.358 189.757 108.313 188.67 107.139 187.99L103.934 186.142C104.543 184.956 104.033 183.618 102.409 182.682C100.045 181.32 96.2102 181.32 93.8445 182.682C91.4789 184.044 91.4789 186.255 93.8445 187.62Z" fill="url(#paint1_linear_5286_52306)"/>
<path d="M98.1771 186.684C99.6383 186.684 100.823 186.001 100.823 185.158C100.823 184.316 99.6383 183.633 98.1771 183.633C96.7158 183.633 95.5312 184.316 95.5312 185.158C95.5312 186.001 96.7158 186.684 98.1771 186.684Z" fill="white"/>
</g>
<g clip-path="url(#clip1_5286_52306)">
<path d="M100.258 144.883C101.519 148.427 104.138 151.539 105.718 152.515C107.298 153.491 146.651 176.218 149.681 177.965C152.824 179.776 157.611 179.639 167.159 174.065L100.258 144.883Z" fill="#CAD6FA"/>
<path d="M190.03 56.5269C191.648 49.3927 187.238 40.2571 180.232 36.2239L139.284 12.6563C132.278 8.62314 125.222 11.161 123.604 18.2952L97.8034 132.081C96.185 139.215 100.595 148.351 107.601 152.384L148.549 175.951C155.555 179.985 162.611 177.447 164.229 170.313L190.03 56.5269Z" fill="#DEE6FF"/>
<path d="M109.039 150.278C102.966 146.783 99.1452 138.865 100.548 132.682L125.955 20.6275C127.358 14.4445 133.473 12.2453 139.545 15.7401L178.795 38.3298C184.868 41.8246 188.688 49.7426 187.286 55.9256L161.878 167.98C160.476 174.163 154.361 176.362 148.288 172.867L109.039 150.278Z" fill="url(#paint2_linear_5286_52306)"/>
<path d="M161.851 33.9897L154.318 29.654C153.847 29.3838 153.555 28.7751 153.663 28.2956C153.772 27.8162 154.242 27.6469 154.713 27.919L162.246 32.2546C162.717 32.5248 163.009 33.1336 162.9 33.613C162.79 34.0905 162.32 34.2598 161.851 33.9897Z" fill="#F1F4FF"/>
<path d="M158.156 177.404L158.345 177.336C158.288 177.355 158.227 177.368 158.168 177.387L158.156 177.404Z" fill="white"/>
<path d="M197.669 53.7802C198.522 50.0153 197.686 45.6986 195.686 41.8633L188.048 44.6104C190.048 48.4458 190.884 52.7624 190.031 56.5274L164.231 170.311C163.429 173.85 161.286 176.254 158.477 177.289L165.935 174.605C166.011 174.578 166.086 174.552 166.162 174.523L166.395 174.439L166.378 174.43C169.055 173.344 171.093 170.99 171.872 167.564L197.669 53.7802Z" fill="#BFCEFF"/>
<path d="M187.869 33.4784L146.921 9.9108C143.333 7.84474 139.736 7.51371 136.858 8.63045L136.854 8.61904L129.453 11.2787L129.457 11.2806C132.293 10.2742 135.795 10.6509 139.284 12.6579L180.232 36.2255C183.541 38.1299 186.259 41.1776 188.047 44.6096L195.684 41.8644C193.896 38.4305 191.179 35.3827 187.869 33.4784Z" fill="#CEDAFF"/>
<g style="mix-blend-mode:soft-light">
<path d="M170.464 130.105L187.286 55.9244C188.686 49.7415 184.866 41.8235 178.793 38.3287L139.542 15.7409C136.425 13.9468 133.301 13.6634 130.805 14.6393L170.464 130.105Z" fill="url(#paint3_linear_5286_52306)"/>
</g>
<g opacity="0.85">
<path d="M155.087 48.7086C154.958 48.7086 154.825 48.676 154.705 48.6064L133.53 36.4196C133.166 36.2088 133.039 35.7436 133.251 35.3805C133.463 35.0175 133.929 34.8914 134.293 35.1023L155.468 47.289C155.833 47.4999 155.959 47.9651 155.748 48.3281C155.606 48.5716 155.351 48.7086 155.087 48.7086Z" fill="white"/>
</g>
<g opacity="0.85">
<path d="M163.922 59.6768C163.793 59.6768 163.66 59.6442 163.54 59.5746L132.382 41.6423C132.018 41.4314 131.891 40.9662 132.103 40.6032C132.314 40.2401 132.781 40.1141 133.145 40.3249L164.303 58.2572C164.668 58.4681 164.794 58.9333 164.583 59.2964C164.441 59.5398 164.186 59.6768 163.922 59.6768Z" fill="white"/>
</g>
<path d="M139.087 63.9341L102.883 94.6587C98.618 98.279 99.2325 105.018 104.086 107.81L155.811 137.58C162.027 141.158 169.496 135.512 167.718 128.579L152.196 68.0852C150.711 62.2942 143.652 60.0588 139.087 63.9341Z" fill="#C6D4FA"/>
<path d="M124.055 72.4112L88.7787 102.348C84.622 105.875 85.2232 112.443 89.9505 115.163L140.347 144.168C146.405 147.653 153.682 142.151 151.949 135.398L136.826 76.4558C135.379 70.8132 128.501 68.6368 124.055 72.4112Z" fill="white"/>
<path d="M129.146 72.6105C130.406 72.6105 131.654 73.0215 132.664 73.771C133.727 74.5586 134.465 75.6659 134.801 76.9728L149.924 135.915C150.38 137.692 150.025 139.449 148.924 140.863C147.802 142.303 146.071 143.163 144.294 143.163C143.29 143.163 142.313 142.895 141.391 142.364L90.9944 113.357C89.3378 112.404 88.2882 110.768 88.1145 108.867C87.9408 106.969 88.6775 105.169 90.1337 103.932L125.41 73.9955C126.478 73.0899 127.77 72.6105 129.146 72.6105ZM129.146 70.5273C127.373 70.5273 125.572 71.1228 124.053 72.4108L88.7787 102.348C84.622 105.875 85.2232 112.442 89.9505 115.163L140.347 144.167C141.641 144.911 142.99 145.246 144.296 145.246C149.103 145.246 153.313 140.709 151.951 135.397L136.826 76.4554C135.874 72.7399 132.564 70.5273 129.146 70.5273ZM122.186 115.4C120.419 114.383 118.656 115.018 118.249 116.816C117.841 118.616 118.944 120.897 120.709 121.914C122.476 122.932 124.24 122.297 124.646 120.499C125.055 118.701 123.952 116.418 122.186 115.4ZM128.583 86.7515C124.265 84.2669 122.889 90.3395 122.337 92.767C121.786 95.1945 120.285 111.451 122.671 112.825C125.057 114.198 130.423 100.166 130.973 97.7381C131.526 95.3106 132.902 89.238 128.583 86.7515Z" fill="url(#paint4_linear_5286_52306)"/>
<path d="M147.992 144.308L148.041 144.281C148.025 144.291 148.008 144.299 147.992 144.308Z" fill="#ACBCF5"/>
<path d="M156.946 132.571L141.824 73.6292C141.484 72.3051 140.843 71.175 140.007 70.2656L135.039 73.125C135.86 74.0287 136.489 75.1492 136.825 76.4581L151.948 135.4C152.906 139.134 151.108 142.485 148.286 144.147L153.078 141.438C153.129 141.41 153.179 141.381 153.229 141.353L153.284 141.32H153.282C156.107 139.658 157.904 136.305 156.946 132.571Z" fill="#ACBCF5"/>
<path d="M130.552 68.5777V68.5739L130.468 68.6214C130.375 68.6709 130.283 68.7242 130.192 68.7774L125.445 71.4599L125.447 71.4618C128.692 69.7134 132.671 70.5163 135.041 73.1245L140.009 70.2632C137.663 67.7101 133.764 66.9111 130.552 68.5777Z" fill="white"/>
</g>
<defs>
<linearGradient id="paint0_linear_5286_52306" x1="68.9999" y1="177.578" x2="95.6578" y2="177.578" gradientUnits="userSpaceOnUse">
<stop stop-color="#F59B64"/>
<stop offset="1" stop-color="#F74B74"/>
</linearGradient>
<linearGradient id="paint1_linear_5286_52306" x1="92.0703" y1="186.268" x2="108.049" y2="186.268" gradientUnits="userSpaceOnUse">
<stop stop-color="#F59B64"/>
<stop offset="1" stop-color="#F74B74"/>
</linearGradient>
<linearGradient id="paint2_linear_5286_52306" x1="132.294" y1="14.5421" x2="155.638" y2="175.759" gradientUnits="userSpaceOnUse">
<stop stop-color="#427CE8"/>
<stop offset="0.517" stop-color="#2B64C7"/>
<stop offset="1" stop-color="#1951AD"/>
</linearGradient>
<linearGradient id="paint3_linear_5286_52306" x1="189.99" y1="49.331" x2="149.125" y2="73.407" gradientUnits="userSpaceOnUse">
<stop stop-color="white"/>
<stop offset="1" stop-color="#8F8F8F"/>
</linearGradient>
<linearGradient id="paint4_linear_5286_52306" x1="85.9998" y1="107.888" x2="152.21" y2="107.888" gradientUnits="userSpaceOnUse">
<stop stop-color="#F59B64"/>
<stop offset="1" stop-color="#F74B74"/>
</linearGradient>
<clipPath id="clip0_5286_52306">
<rect width="57" height="49" fill="white" transform="translate(69 169)"/>
</clipPath>
<clipPath id="clip1_5286_52306">
<rect width="112" height="171" fill="white" transform="translate(86 8)"/>
</clipPath>
</defs>
</svg>
