<svg width="32" height="40" viewBox="0 0 32 40" fill="none" xmlns="http://www.w3.org/2000/svg">
<rect width="32" height="40" fill="#E5E5E5"/>
<g clip-path="url(#clip0_177_469)">
<rect width="375" height="812" transform="translate(-28 -366)" fill="#F3F5FA"/>
<rect x="-12" y="-8" width="343" height="56" rx="8" fill="white"/>
<path d="M22.4178 0H1.68782C1.11068 0 0.642822 0.467857 0.642822 1.37571V39.2857C0.642822 39.5321 1.11068 40 1.68782 40H30.3121C30.8892 40 31.3571 39.5321 31.3571 39.2857V9.27C31.3571 8.77286 31.2907 8.61286 31.1735 8.495L22.8621 0.183571C22.7442 0.0664286 22.5842 0 22.4178 0Z" fill="#E9E9E0"/>
<path d="M22.7856 0.10791V8.57148H31.2492L22.7856 0.10791Z" fill="#D9D7CA"/>
<path d="M9.93875 23.8027C9.69018 23.8027 9.45161 23.7219 9.24804 23.5698C8.50447 23.0119 8.40447 22.3912 8.45161 21.9684C8.58161 20.8055 10.0195 19.5884 12.7266 18.3484C13.8009 15.9941 14.823 13.0934 15.4323 10.6698C14.7195 9.11837 14.0266 7.10551 14.5316 5.9248C14.7088 5.51122 14.9295 5.19408 15.3416 5.05694C15.5045 5.00265 15.9159 4.93408 16.0673 4.93408C16.4273 4.93408 16.7438 5.39765 16.968 5.68337C17.1788 5.95194 17.6566 6.52122 16.7016 10.5419C17.6645 12.5305 19.0287 14.5562 20.3359 15.9434C21.2723 15.7741 22.078 15.6877 22.7345 15.6877C23.853 15.6877 24.5309 15.9484 24.8073 16.4855C25.0359 16.9298 24.9423 17.4491 24.5287 18.0284C24.1309 18.5848 23.5823 18.8791 22.943 18.8791C22.0745 18.8791 21.063 18.3305 19.9352 17.2469C17.9087 17.6705 15.5423 18.4262 13.6295 19.2627C13.0323 20.5298 12.4602 21.5505 11.9273 22.2991C11.1952 23.3241 10.5638 23.8027 9.93875 23.8027ZM11.8402 20.1412C10.3138 20.9991 9.69161 21.7041 9.64661 22.1012C9.63947 22.1669 9.62018 22.3398 9.95447 22.5955C10.0609 22.5619 10.6823 22.2784 11.8402 20.1412ZM21.5809 16.9684C22.163 17.4162 22.3052 17.6427 22.6859 17.6427C22.853 17.6427 23.3295 17.6355 23.5502 17.3277C23.6566 17.1784 23.698 17.0827 23.7145 17.0312C23.6266 16.9848 23.5102 16.8905 22.8752 16.8905C22.5145 16.8912 22.0609 16.9069 21.5809 16.9684ZM16.2452 12.2669C15.7345 14.0341 15.0602 15.9419 14.3352 17.6698C15.828 17.0905 17.4509 16.5848 18.9752 16.2269C18.0109 15.1069 17.0473 13.7084 16.2452 12.2669ZM15.8116 6.22265C15.7416 6.24622 14.8616 7.47765 15.8802 8.5198C16.558 7.00908 15.8423 6.21265 15.8116 6.22265Z" fill="#CC4B4C"/>
<path d="M30.3121 39.9999H1.68782C1.11068 39.9999 0.642822 39.5321 0.642822 38.9549V27.8571H31.3571V38.9549C31.3571 39.5321 30.8892 39.9999 30.3121 39.9999Z" fill="#CC4B4C"/>
<path d="M8.41775 37.8573H7.24561V30.6602H9.31561C9.62132 30.6602 9.92418 30.7087 10.2235 30.8066C10.5227 30.9044 10.7913 31.0509 11.0292 31.2459C11.267 31.4409 11.4592 31.6773 11.6056 31.9537C11.752 32.2302 11.8256 32.5409 11.8256 32.8866C11.8256 33.2516 11.7635 33.5816 11.6399 33.878C11.5163 34.1744 11.3435 34.4237 11.122 34.6252C10.9006 34.8266 10.6335 34.983 10.3213 35.0937C10.0092 35.2044 9.66346 35.2594 9.28632 35.2594H8.41703V37.8573H8.41775ZM8.41775 31.5487V34.4002H9.49203C9.63489 34.4002 9.77632 34.3759 9.91703 34.3266C10.057 34.278 10.1856 34.198 10.3027 34.0873C10.4199 33.9766 10.5142 33.8223 10.5856 33.6237C10.657 33.4252 10.6927 33.1794 10.6927 32.8866C10.6927 32.7694 10.6763 32.6337 10.6442 32.4816C10.6113 32.3287 10.5449 32.1823 10.4442 32.0423C10.3427 31.9023 10.2013 31.7852 10.0192 31.6909C9.83704 31.5966 9.59561 31.5494 9.29632 31.5494H8.41775V31.5487Z" fill="white"/>
<path d="M19.0136 34.0587C19.0136 34.6509 18.95 35.1573 18.8229 35.5773C18.6957 35.9973 18.535 36.3487 18.3393 36.6323C18.1436 36.9159 17.9243 37.1387 17.68 37.3016C17.4357 37.4644 17.2 37.5859 16.9722 37.668C16.7443 37.7494 16.5357 37.8016 16.3472 37.8244C16.1586 37.8459 16.0186 37.8573 15.9272 37.8573H13.2029V30.6602H15.3707C15.9765 30.6602 16.5086 30.7566 16.9672 30.948C17.4257 31.1394 17.8072 31.3959 18.11 31.7144C18.4129 32.033 18.6386 32.3966 18.7886 32.803C18.9386 33.2102 19.0136 33.6287 19.0136 34.0587ZM15.5372 36.998C16.3315 36.998 16.9043 36.7444 17.2557 36.2366C17.6072 35.7287 17.7829 34.993 17.7829 34.0294C17.7829 33.7302 17.7472 33.4337 17.6757 33.1409C17.6036 32.848 17.4657 32.583 17.2607 32.3452C17.0557 32.1073 16.7772 31.9152 16.4257 31.7687C16.0743 31.6223 15.6186 31.5487 15.0586 31.5487H14.375V36.998H15.5372V36.998Z" fill="white"/>
<path d="M21.9046 31.5487V33.8144H24.9124V34.6152H21.9046V37.8573H20.7131V30.6602H25.2146V31.5487H21.9046Z" fill="white"/>
</g>
<rect x="-5927" y="-2723" width="11831" height="3608" stroke="#5C5B5B" stroke-width="12" stroke-dasharray="100 100"/>
<defs>
<clipPath id="clip0_177_469">
<rect width="375" height="812" fill="white" transform="translate(-28 -366)"/>
</clipPath>
</defs>
</svg>
