<svg width="76" height="76" viewBox="0 0 76 76" fill="none" xmlns="http://www.w3.org/2000/svg">
<g filter="url(#filter0_b_1298_12261)">
<path d="M38.0907 75.8076C58.8014 75.8076 75.5907 59.0183 75.5907 38.3076C75.5907 17.5969 58.8014 0.807617 38.0907 0.807617C17.38 0.807617 0.590698 17.5969 0.590698 38.3076C0.590698 59.0183 17.38 75.8076 38.0907 75.8076Z" fill="#E7F1FB"/>
</g>
<g filter="url(#filter1_b_1298_12261)">
<path d="M38.0907 75.8076C58.8014 75.8076 75.5907 59.0183 75.5907 38.3076C75.5907 17.5969 58.8014 0.807617 38.0907 0.807617C17.38 0.807617 0.590698 17.5969 0.590698 38.3076C0.590698 59.0183 17.38 75.8076 38.0907 75.8076Z" fill="#E7F1FB"/>
</g>
<path d="M34.5804 66.4948C27.4836 66.6876 21.5504 61.0682 21.3576 53.9713L20.1869 10.8667L5.64552 14.614C2.05472 15.6633 -0.0125552 19.4509 1.04328 23.0749L14.8614 69.5763C15.7767 72.583 18.6148 74.5123 21.6014 74.4312C22.1616 74.416 22.7292 74.3306 23.2887 74.1672L53.6203 65.9777L34.5804 66.4948Z" fill="#D8E5F3"/>
<path d="M34.7145 65.7826C27.615 65.7826 21.8366 60.0042 21.8366 52.9047V9.78418L7.1988 13.1353C3.58083 14.0868 1.41149 17.8168 2.36855 21.4681L14.9191 68.3276C15.7524 71.358 18.5371 73.3636 21.5248 73.3636C22.0851 73.3636 22.6549 73.2937 23.2186 73.1456L53.7614 65.7826H34.7145Z" fill="white"/>
<path d="M74.4812 15.2695V53.2684C74.4812 57.8739 70.7539 61.6012 66.1483 61.6012H34.3328C31.212 61.6012 28.485 59.874 27.0608 57.3285C26.3939 56.1468 26 54.7531 26 53.2684V9.33282C26 4.72672 29.7273 1 34.3328 1H60.1496C74.4812 15.3316 60.1496 1 74.4812 15.2695Z" fill="#ECEFF1"/>
<path d="M74.4812 15.3003H63.5443C61.6863 15.3003 60.1808 13.7948 60.1808 11.9369V1L74.4812 15.3003Z" fill="#0D75D6"/>
<path d="M64.1567 25.7383H36.5745C35.3051 25.7383 34.2759 26.6337 34.2759 27.7383C34.2759 28.8428 35.3051 29.7383 36.5745 29.7383H64.1567C65.4261 29.7383 66.4552 28.8428 66.4552 27.7383C66.4552 26.6337 65.4261 25.7383 64.1567 25.7383Z" fill="#6EACE6"/>
<path d="M64.1567 34.7383H36.5745C35.3051 34.7383 34.2759 35.6337 34.2759 36.7383C34.2759 37.8428 35.3051 38.7383 36.5745 38.7383H64.1567C65.4261 38.7383 66.4552 37.8428 66.4552 36.7383C66.4552 35.6337 65.4261 34.7383 64.1567 34.7383Z" fill="#6EACE6"/>
<path d="M63.2373 43.7383H37.4939C35.7167 43.7383 34.2759 44.6337 34.2759 45.7383C34.2759 46.8428 35.7167 47.7383 37.4939 47.7383H63.2373C65.0144 47.7383 66.4552 46.8428 66.4552 45.7383C66.4552 44.6337 65.0144 43.7383 63.2373 43.7383Z" fill="#6EACE6"/>
<path d="M54.9626 52.7383H36.5745C35.3051 52.7383 34.2759 53.6337 34.2759 54.7383C34.2759 55.8428 35.3051 56.7383 36.5745 56.7383H54.9626C56.232 56.7383 57.2611 55.8428 57.2611 54.7383C57.2611 53.6337 56.232 52.7383 54.9626 52.7383Z" fill="#6EACE6"/>
<defs>
<filter id="filter0_b_1298_12261" x="-19.4093" y="-19.1924" width="115" height="115" filterUnits="userSpaceOnUse" color-interpolation-filters="sRGB">
<feFlood flood-opacity="0" result="BackgroundImageFix"/>
<feGaussianBlur in="BackgroundImageFix" stdDeviation="10"/>
<feComposite in2="SourceAlpha" operator="in" result="effect1_backgroundBlur_1298_12261"/>
<feBlend mode="normal" in="SourceGraphic" in2="effect1_backgroundBlur_1298_12261" result="shape"/>
</filter>
<filter id="filter1_b_1298_12261" x="-19.4093" y="-19.1924" width="115" height="115" filterUnits="userSpaceOnUse" color-interpolation-filters="sRGB">
<feFlood flood-opacity="0" result="BackgroundImageFix"/>
<feGaussianBlur in="BackgroundImageFix" stdDeviation="10"/>
<feComposite in2="SourceAlpha" operator="in" result="effect1_backgroundBlur_1298_12261"/>
<feBlend mode="normal" in="SourceGraphic" in2="effect1_backgroundBlur_1298_12261" result="shape"/>
</filter>
</defs>
</svg>
