<svg width="76" height="77" viewBox="0 0 76 77" fill="none" xmlns="http://www.w3.org/2000/svg">
<g filter="url(#filter0_b_1298_12284)">
<path d="M37.5 75.5C58.2107 75.5 75 58.7107 75 38C75 17.2893 58.2107 0.5 37.5 0.5C16.7893 0.5 0 17.2893 0 38C0 58.7107 16.7893 75.5 37.5 75.5Z" fill="#E7F1FB"/>
</g>
<g clip-path="url(#clip0_1298_12284)">
<path d="M35.5804 68.4948C28.4836 68.6876 22.5504 63.0682 22.3576 55.9713L21.1869 12.8667L6.64552 16.614C3.05472 17.6633 0.987445 21.4509 2.04328 25.0749L15.8614 71.5763C16.7767 74.583 19.6148 76.5123 22.6014 76.4312C23.1616 76.416 23.7292 76.3306 24.2887 76.1672L54.6203 67.9777L35.5804 68.4948Z" fill="#D8E5F3"/>
<path d="M35.7145 67.7826C28.615 67.7826 22.8366 62.0042 22.8366 54.9047V11.7842L8.1988 15.1353C4.58083 16.0868 2.41149 19.8168 3.36855 23.4681L15.9191 70.3276C16.7524 73.358 19.5371 75.3636 22.5248 75.3636C23.0851 75.3636 23.6549 75.2937 24.2186 75.1456L54.7614 67.7826H35.7145Z" fill="white"/>
<path d="M75.8628 10.9695V54.9051C75.8628 59.5106 72.1356 63.2379 67.53 63.2379H35.7145C32.5936 63.2379 29.8667 61.5108 28.4425 58.9653C27.7756 57.7835 27.3817 56.3898 27.3817 54.9051V10.9695C27.3817 6.36344 31.1089 2.63672 35.7145 2.63672H67.53C72.1356 2.63672 75.8628 6.36344 75.8628 10.9695Z" fill="#ECEFF1"/>
<path d="M48.5924 23.8468C48.5924 27.1941 45.8793 29.9071 42.5321 29.9071C39.1854 29.9071 36.4718 27.1941 36.4718 23.8468C36.4718 20.5002 39.1854 17.7871 42.5321 17.7871C45.8793 17.7871 48.5924 20.5002 48.5924 23.8468Z" fill="#FF9843"/>
<path d="M75.8628 38.8156V54.9053C75.8628 59.5109 72.1355 63.2382 67.53 63.2382H35.7145C32.5936 63.2382 29.8667 61.511 28.4424 58.9655L58.4703 28.9376C60.5304 26.8776 63.9242 26.8776 65.9848 28.9376L75.8628 38.8156Z" fill="#0D75D6"/>
<path d="M66.9541 63.2377H35.7145C32.5936 63.2377 29.8667 61.5106 28.4425 58.9651C27.7756 57.7833 27.3817 56.3896 27.3817 54.9049V47.9053L35.745 39.5425C37.805 37.4819 41.1989 37.4819 43.2595 39.5425L66.9541 63.2377Z" fill="#6EACE6"/>
</g>
<defs>
<filter id="filter0_b_1298_12284" x="-20" y="-19.5" width="115" height="115" filterUnits="userSpaceOnUse" color-interpolation-filters="sRGB">
<feFlood flood-opacity="0" result="BackgroundImageFix"/>
<feGaussianBlur in="BackgroundImageFix" stdDeviation="10"/>
<feComposite in2="SourceAlpha" operator="in" result="effect1_backgroundBlur_1298_12284"/>
<feBlend mode="normal" in="SourceGraphic" in2="effect1_backgroundBlur_1298_12284" result="shape"/>
</filter>
<clipPath id="clip0_1298_12284">
<rect width="74" height="74" fill="white" transform="translate(1.5 3)"/>
</clipPath>
</defs>
</svg>
