<svg width="126" height="117" viewBox="0 0 126 117" fill="none" xmlns="http://www.w3.org/2000/svg">
<defs>
<linearGradient id="paint0_linear_1969_21871" x1="17.2816" y1="22.9008" x2="70.2468" y2="22.9008" gradientUnits="userSpaceOnUse">
<stop stop-color="#2BA8DF"/>
<stop offset="0.51" stop-color="#0079C1"/>
<stop offset="1" stop-color="#04679D"/>
</linearGradient>
<linearGradient id="paint1_linear_1969_21871" x1="27.026" y1="31.3152" x2="97.4885" y2="31.3152" gradientUnits="userSpaceOnUse">
<stop stop-color="#2BA8DF"/>
<stop offset="0.54" stop-color="#0079C1"/>
<stop offset="1" stop-color="#04679D"/>
</linearGradient>
<linearGradient id="paint2_linear_1969_21871" x1="783.246" y1="469.03" x2="1945.17" y2="469.03" gradientUnits="userSpaceOnUse">
<stop stop-color="#2BA8DF"/>
<stop offset="0.54" stop-color="#0079C1"/>
<stop offset="1" stop-color="#04679D"/>
</linearGradient>
<linearGradient id="paint3_linear_1969_21871" x1="9897.65" y1="5584.67" x2="20192.8" y2="5584.67" gradientUnits="userSpaceOnUse">
<stop stop-color="#2BA8DF"/>
<stop offset="0.54" stop-color="#0079C1"/>
<stop offset="1" stop-color="#04679D"/>
</linearGradient>
</defs>

<path fill-rule="evenodd" clip-rule="evenodd" d="M52.5513 63.4903C53.2534 63.6416 53.9641 63.7699 54.6824 63.8744C54.3796 64.2468 54.0167 64.5687 53.6068 64.8256C53.0034 65.2037 52.319 65.4277 51.6132 65.4805C51.9537 64.8332 52.2669 64.1693 52.5513 63.4903ZM29.2397 79C31.7558 79 34.186 78.6322 36.4795 77.9474H95.02H96.0339C101.954 77.9514 107.682 75.8419 112.199 71.9953C116.715 68.1486 119.725 62.8146 120.693 56.9444C121.661 51.0741 120.523 45.0492 117.483 39.9437C114.816 35.4658 110.838 31.9504 106.118 29.8614C105.921 27.6348 105.3 25.4599 104.283 23.4526C103.018 20.9571 101.176 18.7907 98.9069 17.1286C96.6376 15.4666 94.0041 14.3556 91.2195 13.8856C89.397 13.578 87.5434 13.5505 85.7233 13.7991C79.9247 5.45924 70.2724 0 59.345 0C42.8198 0 29.2107 12.4851 27.4358 28.5371C14.3252 29.4621 3.97656 40.3909 3.97656 53.7369C3.97656 67.6893 15.2873 79 29.2397 79Z" fill="white"/>
<path d="M7.18535 103.091H3.81288L0.0390625 85.5352H2.85445L5.52008 98.8782L7.83828 85.5352H10.5818L7.18535 103.091Z" fill="#0C5CA8"/>
<path d="M19.6536 103.091L14.9393 91.409V103.091H12.3516V85.5352H15.0951L19.5038 96.4582V85.5352H22.0916V103.091H19.6536Z" fill="#0C5CA8"/>
<path d="M34.3757 90.8592C34.3778 91.5883 34.279 92.3142 34.0822 93.0163C33.8886 93.7129 33.5074 94.3432 32.98 94.8388C32.5058 95.3074 31.9072 95.6308 31.2548 95.771C30.6063 95.9031 29.946 95.9692 29.2841 95.9682H27.487V103.073H24.7734V85.5352H29.2841C31.1091 85.5352 32.4149 85.9753 33.2016 86.8557C34.0043 87.7341 34.3757 89.0666 34.3757 90.8592ZM31.5543 90.6561C31.5543 89.6044 31.3267 88.9053 30.8834 88.5587C30.2229 88.1557 29.4506 87.9736 28.679 88.0388H27.481V93.4705H28.679C29.7693 93.4705 30.524 93.2793 30.9314 92.8729C31.3387 92.4666 31.5543 91.7555 31.5543 90.6561Z" fill="#0C5CA8"/>
<path d="M41.1881 88.0448V103.091H38.4805V88.0448H35.0781V85.5352H44.6265V88.0448H41.1881Z" fill="#0C5CA8"/>
<path d="M61.3192 98.8776C61.3308 99.5236 61.2063 100.165 60.9538 100.76C60.719 101.297 60.3694 101.776 59.9295 102.164C59.4837 102.556 58.9646 102.857 58.402 103.048C57.7899 103.252 57.1483 103.353 56.5031 103.347C54.8778 103.347 53.6458 102.907 52.8072 102.027C51.902 101.014 51.3311 99.7473 51.1719 98.3996L53.7836 97.6407C53.8358 98.0304 53.924 98.4145 54.0472 98.788C54.1661 99.1485 54.3355 99.4905 54.5503 99.8038C54.7571 100.098 55.0247 100.344 55.335 100.527C55.7016 100.726 56.116 100.821 56.5331 100.802C56.8012 100.822 57.0704 100.783 57.3222 100.689C57.574 100.596 57.8026 100.449 57.9921 100.259C58.1816 100.068 58.3276 99.8395 58.4201 99.5877C58.5125 99.336 58.5493 99.0672 58.5278 98.7999C58.5304 98.2658 58.3579 97.7454 58.0366 97.318C57.6676 96.8395 57.2411 96.4081 56.7667 96.0333C56.2575 95.615 55.7064 95.1968 55.1314 94.7904C54.5501 94.3769 54.0032 93.9173 53.4961 93.4161C52.9908 92.9276 52.5626 92.3655 52.2261 91.749C51.9227 91.1461 51.7523 90.4853 51.7265 89.8112C51.7007 89.1371 51.82 88.4653 52.0764 87.8411C52.3002 87.3207 52.6332 86.8541 53.0528 86.4727C53.4765 86.0917 53.9711 85.7973 54.5084 85.6063C55.0847 85.3998 55.6931 85.2966 56.3055 85.3015C56.9419 85.2905 57.5744 85.4021 58.1684 85.6302C58.6946 85.8432 59.1747 86.1557 59.5821 86.5504C59.9933 86.9578 60.337 87.4277 60.6004 87.9427C60.8816 88.5015 61.0967 89.091 61.2414 89.6994L58.6416 90.4583C58.5638 90.1715 58.4619 89.8607 58.3421 89.556C58.2317 89.2548 58.0784 88.9711 57.8869 88.7135C57.7014 88.4775 57.4765 88.2754 57.222 88.1159C56.948 87.9439 56.6291 87.8566 56.3055 87.865C56.0716 87.8594 55.8391 87.9022 55.6226 87.9906C55.4061 88.0791 55.2103 88.2112 55.0475 88.3789C54.8823 88.5464 54.7526 88.7455 54.6661 88.9642C54.5797 89.1828 54.5383 89.4166 54.5443 89.6516C54.5427 90.1784 54.7201 90.6903 55.0475 91.1036C55.4169 91.5747 55.8434 91.9982 56.3174 92.3644C56.8266 92.7648 57.3717 93.1771 57.9528 93.6073C58.5346 94.0288 59.0815 94.4964 59.5881 95.0056C60.0949 95.5116 60.5211 96.0919 60.852 96.7265C61.1755 97.3968 61.3356 98.1338 61.3192 98.8776Z" fill="#0C5CA8"/>
<path d="M73.8381 103.091V93.5309C73.8381 93.3516 73.8381 93.1723 73.8381 92.9991C73.8283 92.8311 73.792 92.6657 73.7302 92.5091C73.6691 92.3622 73.5673 92.2358 73.4367 92.1446C73.2775 92.0393 73.0882 91.989 72.8976 92.0012C72.468 92.0021 72.054 92.1617 71.7355 92.4493C71.4099 92.7083 71.1145 93.0029 70.855 93.3277V103.121H68.411V93.5607C68.411 93.3815 68.411 93.2022 68.411 93.0289C68.4023 92.8602 68.3637 92.6943 68.2971 92.5389C68.2382 92.3925 68.1384 92.266 68.0096 92.1744C67.8497 92.0708 67.6609 92.0206 67.4705 92.031C67.057 92.0313 66.6573 92.1798 66.3443 92.4493C66.0292 92.7099 65.7439 93.0045 65.4937 93.3277V103.121H63.0078V90.0114H65.4937V91.6904C65.9145 91.2043 66.391 90.7691 66.9134 90.3938C67.4414 90.0317 68.0698 89.8436 68.7105 89.856C68.9689 89.8383 69.2283 89.8737 69.4725 89.96C69.7167 90.0464 69.9405 90.1818 70.1301 90.3579C70.4727 90.7281 70.696 91.1923 70.7711 91.6904C71.2193 91.2132 71.7151 90.7828 72.2507 90.4057C72.7934 90.0357 73.4383 89.8435 74.0956 89.856C74.4823 89.8396 74.8659 89.9306 75.2038 90.1189C75.4829 90.2821 75.7126 90.5175 75.8687 90.8001C76.0338 91.0961 76.1416 91.4204 76.1862 91.7562C76.2368 92.1265 76.2628 92.4998 76.2641 92.8736V103.091H73.8381Z" fill="#0C5CA8"/>
<path d="M84.2316 103.091C84.1375 102.849 84.0751 102.596 84.0459 102.338C84.0459 102.087 84.0099 101.831 84.0099 101.562C83.6113 101.996 83.1765 102.396 82.7101 102.757C82.2256 103.113 81.6341 103.294 81.0328 103.271C80.6 103.285 80.1715 103.181 79.7929 102.972C79.4606 102.77 79.1797 102.494 78.9722 102.165C78.7526 101.825 78.6001 101.445 78.5229 101.048C78.4344 100.639 78.3902 100.223 78.3911 99.8049C78.3831 99.2704 78.4682 98.7387 78.6427 98.2333C78.8336 97.7385 79.1371 97.2946 79.5293 96.9367C80.1537 96.3541 80.8754 95.8849 81.6618 95.5504C82.4884 95.1859 83.2732 94.8513 84.0099 94.5346V93.8534C84.0096 93.6259 83.9976 93.3985 83.974 93.1722C83.95 92.9655 83.8934 92.7638 83.8063 92.5747C83.7191 92.3992 83.5814 92.2535 83.4109 92.1564C83.1989 92.0452 82.9614 91.9917 82.7221 92.001C82.4942 91.9754 82.2638 92.0186 82.0608 92.1252C81.8579 92.2317 81.6917 92.3966 81.5839 92.5986C81.3814 93.0014 81.2729 93.4446 81.2664 93.8952H78.6487C78.6753 92.7684 79.1417 91.6965 79.9486 90.9075C80.8204 90.1917 81.9301 89.8291 83.0575 89.8917C83.5535 89.889 84.0475 89.9554 84.5251 90.0889C84.9947 90.2357 85.411 90.5161 85.7231 90.8956C86.0771 91.2674 86.3019 91.743 86.3641 92.252C86.4191 92.7521 86.4471 93.2547 86.448 93.7578V99.5838C86.448 100.181 86.448 100.779 86.448 101.376C86.4652 101.972 86.5517 102.563 86.7055 103.139L84.2316 103.091ZM84.0099 96.3571C83.6925 96.5124 83.357 96.6917 83.0036 96.9068C82.6546 97.1117 82.3292 97.3541 82.0332 97.6298C81.7415 97.8977 81.4894 98.2055 81.2844 98.5441C81.0825 98.8772 80.9787 99.2603 80.9849 99.6495C80.9812 100.01 81.0901 100.363 81.2964 100.659C81.3981 100.808 81.5364 100.928 81.698 101.007C81.8595 101.087 82.039 101.123 82.2189 101.113C82.6003 101.119 82.9724 100.995 83.2732 100.761C83.5679 100.532 83.8177 100.25 84.0099 99.9304V96.3571Z" fill="#0C5CA8"/>
<path d="M94.0341 92.4896C93.8366 92.4526 93.636 92.4345 93.4351 92.4358C93.0651 92.4161 92.6967 92.4967 92.3688 92.6688C92.1146 92.8049 91.9063 93.0128 91.7698 93.2664C91.6355 93.5504 91.5524 93.8558 91.5242 94.1686C91.4879 94.51 91.4699 94.8531 91.4703 95.1964V103.06H88.9844V90.0098H91.5062V92.2685C91.7449 91.597 92.1271 90.9853 92.6264 90.4759C93.1873 90.0284 93.8998 89.8143 94.6151 89.8783V92.6927C94.43 92.6028 94.235 92.5347 94.0341 92.4896Z" fill="#0C5CA8"/>
<path d="M101.238 103.205C100.964 103.239 100.687 103.255 100.411 103.252C99.9184 103.254 99.4273 103.194 98.9496 103.073C98.4783 102.943 98.0594 102.669 97.7515 102.29C97.4168 101.909 97.2187 101.428 97.1885 100.922C97.1525 100.396 97.1286 99.8943 97.1286 99.4103V92.2219H95.2656V90.011H97.1286V86.4258H99.6145V90.011H101.861V92.2219H99.5965V99.1713C99.5756 99.6406 99.6811 100.107 99.902 100.522C100.042 100.709 100.23 100.855 100.446 100.946C100.662 101.036 100.898 101.067 101.13 101.036C101.289 101.038 101.447 101.026 101.603 101C101.729 100.97 101.873 100.934 102.047 100.88V103.091C101.771 103.145 101.501 103.205 101.238 103.205Z" fill="#0C5CA8"/>
<path d="M112.689 99.8165C112.552 100.482 112.278 101.113 111.886 101.669C111.505 102.204 110.991 102.63 110.395 102.906C109.672 103.221 108.889 103.372 108.101 103.348C107.329 103.359 106.564 103.209 105.854 102.906C105.155 102.585 104.569 102.063 104.171 101.406C103.939 101.078 103.763 100.715 103.65 100.33C103.529 99.9406 103.445 99.5405 103.398 99.1353C103.345 98.7271 103.319 98.3159 103.32 97.9044V91.7676C103.32 91.3314 103.32 90.9072 103.32 90.4829C103.33 90.067 103.364 89.652 103.422 89.24C103.482 88.8321 103.584 88.4316 103.728 88.045C103.875 87.6393 104.076 87.2554 104.327 86.9037C104.751 86.3404 105.329 85.911 105.992 85.6667C106.649 85.4124 107.348 85.2827 108.053 85.2843C108.789 85.269 109.52 85.4116 110.197 85.7026C110.776 85.9626 111.285 86.3558 111.683 86.8499C112.082 87.3598 112.373 87.9452 112.539 88.5708C112.729 89.272 112.822 89.9957 112.815 90.7219V91.2537H110.101C110.101 90.8892 110.101 90.5068 110.047 90.1124C110.017 89.7326 109.928 89.3597 109.784 89.007C109.656 88.6817 109.45 88.3924 109.185 88.1645C108.863 87.9297 108.469 87.8136 108.071 87.8358C107.659 87.8097 107.251 87.9258 106.914 88.1645C106.646 88.3851 106.44 88.6712 106.315 88.995C106.181 89.3455 106.1 89.7141 106.076 90.0885C106.076 90.4769 106.04 90.8594 106.04 91.2298V97.0798C106.04 97.4443 106.04 97.8506 106.04 98.2748C106.053 98.6826 106.129 99.0859 106.268 99.4699C106.386 99.8272 106.592 100.15 106.867 100.408C107.202 100.684 107.631 100.821 108.065 100.79C108.5 100.815 108.928 100.674 109.263 100.396C109.555 100.131 109.772 99.7925 109.892 99.4161C110.027 99.0084 110.108 98.5844 110.131 98.1553C110.131 97.7012 110.179 97.2949 110.179 96.9244H112.881V97.5219C112.896 98.2913 112.832 99.0603 112.689 99.8165Z" fill="#0C5CA8"/>
<path d="M122.089 103.073L121.358 99.2551H117.584L116.901 103.073H114.266L117.638 85.5117H121.364L124.916 103.073H122.089ZM119.423 88.8639L118.033 96.7275H120.855L119.423 88.8639Z" fill="#0C5CA8"/>
<path d="M13.2038 108.199C13.1937 108.27 13.1599 108.336 13.108 108.385L10.7897 111.271L13.5991 114.312C13.665 114.384 13.683 114.42 13.683 114.462C13.683 114.504 13.5632 114.587 13.2757 114.587H13.1619C12.983 114.616 12.8001 114.573 12.6527 114.468L10.005 111.48H9.9631V114.372C9.9631 114.504 9.85528 114.575 9.5977 114.575H9.51983C9.26225 114.575 9.14844 114.504 9.14844 114.372V108.283C9.14844 108.152 9.26225 108.08 9.51983 108.08H9.5977C9.85528 108.08 9.9631 108.152 9.9631 108.283V111.109H10.005L12.2813 108.205C12.4273 108.102 12.6069 108.057 12.7845 108.08H12.8743C13.096 108.08 13.2038 108.134 13.2038 108.199Z" fill="#DE9B39"/>
<path d="M18.0298 109.872C18.0259 109.917 18.0158 109.962 17.9998 110.004L15.6038 116.302C15.5499 116.439 15.3881 116.493 15.1665 116.493H15.0287C14.825 116.493 14.7232 116.439 14.7232 116.344C14.7232 116.248 14.7232 116.308 14.7711 116.188L15.5499 114.312L13.9265 109.992C13.9203 109.952 13.9203 109.912 13.9265 109.872C13.9265 109.783 14.0463 109.717 14.3279 109.717H14.3997C14.5854 109.717 14.7232 109.753 14.7711 109.86L15.7176 112.37C15.8314 112.675 15.9332 113.009 16.0171 113.302C16.1069 113.015 16.2088 112.657 16.3226 112.37L17.2451 109.86C17.287 109.753 17.4308 109.717 17.6284 109.717C17.916 109.717 18.0298 109.777 18.0298 109.872ZM17.1672 107.918C17.1672 108.02 17.0714 108.104 16.2926 108.994C16.2306 109.054 16.1561 109.101 16.0744 109.129C15.9927 109.158 15.9057 109.169 15.8194 109.161C15.6697 109.161 15.6098 109.131 15.6098 109.066C15.7402 108.702 15.9196 108.359 16.1429 108.044C16.2447 107.865 16.4244 107.799 16.7419 107.799C17.0594 107.799 17.1672 107.829 17.1672 107.918Z" fill="#DE9B39"/>
<path d="M23.9396 110.064C23.9396 110.213 23.7659 110.566 23.6461 110.566C23.3887 110.418 23.0985 110.336 22.8015 110.327C22.3402 110.327 21.9748 110.548 21.9748 110.924C21.9748 111.301 22.1785 111.576 22.6996 111.731C23.8378 112.084 24.1852 112.388 24.1852 113.231C24.1754 113.434 24.1248 113.633 24.0363 113.816C23.9479 114 23.8234 114.163 23.6703 114.298C23.5172 114.432 23.3386 114.534 23.1451 114.598C22.9516 114.663 22.7471 114.687 22.5439 114.671C21.6993 114.671 21.0703 114.301 21.0703 114.073C21.0703 113.972 21.262 113.607 21.3938 113.607C21.7149 113.831 22.0929 113.959 22.484 113.978C23.083 113.978 23.3945 113.739 23.3945 113.231C23.3945 112.813 23.1609 112.604 22.466 112.4C21.4657 112.102 21.1781 111.701 21.1781 111.008C21.1845 110.817 21.2302 110.629 21.3124 110.457C21.3947 110.284 21.5116 110.13 21.656 110.005C21.8004 109.879 21.9692 109.785 22.1519 109.727C22.3345 109.669 22.5271 109.65 22.7176 109.67C23.3466 109.67 23.9396 109.861 23.9396 110.064Z" fill="#DE9B39"/>
<path d="M29.4874 112.168C29.4874 113.77 28.7626 114.618 27.3848 114.618C26.0071 114.618 25.2344 113.758 25.2344 112.168C25.2344 110.579 26.0011 109.676 27.3848 109.676C28.7686 109.676 29.4874 110.567 29.4874 112.168ZM26.049 112.168C26.049 113.399 26.4504 113.961 27.3549 113.961C28.2594 113.961 28.6787 113.363 28.6787 112.168C28.6787 110.973 28.2654 110.376 27.3549 110.376C26.4444 110.376 26.049 110.919 26.049 112.168ZM27.8461 108.147L28.3313 108.959C28.3634 109.007 28.382 109.063 28.3852 109.121C28.3852 109.204 28.3133 109.258 28.1636 109.258C28.107 109.262 28.0504 109.253 27.9976 109.232C27.9448 109.211 27.8972 109.18 27.8581 109.139L27.4088 108.44L26.8098 109.127C26.7234 109.206 26.6096 109.249 26.4923 109.246C26.3545 109.246 26.2827 109.198 26.2827 109.115C26.2864 109.055 26.305 108.998 26.3366 108.947L26.8577 108.135C26.905 108.067 26.9691 108.013 27.0436 107.977C27.1181 107.942 27.2006 107.926 27.283 107.932H27.5166C27.5847 107.933 27.6511 107.953 27.709 107.989C27.7669 108.024 27.8142 108.075 27.8461 108.135V108.147ZM29.8588 106.743C29.8588 106.844 29.7689 106.928 28.9902 107.812C28.9269 107.871 28.8523 107.916 28.7709 107.944C28.6895 107.973 28.6031 107.985 28.517 107.979C28.3672 107.979 28.3013 107.979 28.3013 107.89C28.4351 107.525 28.6164 107.18 28.8405 106.862C28.9423 106.689 29.116 106.623 29.4395 106.623C29.763 106.623 29.8588 106.635 29.8588 106.731V106.743Z" fill="#DE9B39"/>
<path d="M34.3085 108.762V109.736H35.0872C35.219 109.736 35.2729 109.82 35.2729 110.011V110.125C35.2729 110.316 35.219 110.399 35.0872 110.399H34.3085V113.28C34.3085 113.829 34.5421 113.961 34.8117 113.961C34.9447 113.958 35.0771 113.942 35.207 113.913C35.3388 113.913 35.4047 114.278 35.4047 114.349C35.4047 114.6 34.9794 114.624 34.7278 114.624C34.5608 114.635 34.3934 114.609 34.2376 114.548C34.0819 114.487 33.9417 114.392 33.8271 114.27C33.7125 114.149 33.6264 114.003 33.575 113.844C33.5236 113.685 33.5081 113.517 33.5298 113.351V110.376H33.0685C32.9367 110.376 32.8828 110.292 32.8828 110.101V109.987C32.8828 109.796 32.9367 109.712 33.0685 109.712H33.5298L33.6436 108.738C33.6436 108.613 33.7454 108.535 33.9371 108.535H34.0329C34.2246 108.583 34.3085 108.637 34.3085 108.762Z" fill="#DE9B39"/>
<path d="M40.2319 110.022V113.201C40.2242 113.602 40.2624 114.003 40.3457 114.396C40.3457 114.575 39.9623 114.611 39.8425 114.611C39.6209 114.611 39.573 114.222 39.5191 113.959C39.3391 114.169 39.1172 114.339 38.8676 114.459C38.618 114.578 38.3461 114.644 38.0694 114.653C37.8675 114.672 37.6637 114.646 37.4727 114.578C37.2816 114.51 37.1079 114.401 36.9639 114.258C36.8198 114.116 36.709 113.943 36.6392 113.753C36.5694 113.563 36.5423 113.36 36.5599 113.159V109.95C36.5599 109.819 36.6737 109.747 36.9313 109.747H36.9972C37.2608 109.747 37.3686 109.819 37.3686 109.95V113.081C37.363 113.201 37.3832 113.321 37.4278 113.432C37.4724 113.544 37.5403 113.644 37.6271 113.728C37.7139 113.811 37.8175 113.875 37.931 113.915C38.0444 113.954 38.1652 113.97 38.2851 113.959C38.5163 113.945 38.7413 113.879 38.9435 113.766C39.1456 113.654 39.3198 113.497 39.4532 113.308V109.926C39.4532 109.795 39.567 109.723 39.8246 109.723H40.148C40.5494 109.723 40.6572 109.562 40.6572 109.418C40.6572 109.137 40.4355 108.952 40.4116 108.821C40.4108 108.791 40.4175 108.762 40.4311 108.736C40.4447 108.71 40.4648 108.687 40.4895 108.671L40.7171 108.522C40.7472 108.497 40.7857 108.484 40.8249 108.486C41.0406 108.486 41.2263 108.904 41.2263 109.173C41.2263 109.669 40.9208 110.004 40.2319 110.022ZM38.2312 108.994C37.4524 108.104 37.3566 108.02 37.3566 107.918C37.3566 107.817 37.5064 107.799 37.8059 107.799C38.1054 107.799 38.2791 107.865 38.4049 108.044C38.6282 108.359 38.8076 108.702 38.938 109.066C38.938 109.131 38.8781 109.161 38.7283 109.161C38.6382 109.173 38.5466 109.164 38.4604 109.135C38.3743 109.106 38.2959 109.058 38.2312 108.994Z" fill="#DE9B39"/>
<path d="M47.7749 109.872C47.7689 109.934 47.7438 109.993 47.703 110.039L46.3013 112.071L47.8048 114.264C47.8457 114.311 47.8708 114.37 47.8767 114.431C47.8767 114.533 47.7689 114.587 47.4514 114.587H47.3675C47.1759 114.587 47.0441 114.587 46.9722 114.449L45.9778 112.979C45.9059 112.876 45.8399 112.768 45.7801 112.657C45.7442 112.722 45.6963 112.812 45.5885 112.979L44.5881 114.461C44.5317 114.512 44.4649 114.549 44.3925 114.571C44.32 114.592 44.2436 114.598 44.1688 114.587C43.8813 114.587 43.7734 114.545 43.7734 114.431C43.7794 114.37 43.8045 114.311 43.8453 114.264L45.3489 112.095L43.9591 110.039C43.9171 109.993 43.89 109.934 43.8813 109.872C43.8813 109.771 43.9951 109.717 44.3126 109.717H44.3904C44.5881 109.717 44.7199 109.717 44.7918 109.854L45.6723 111.175C45.7861 111.342 45.8281 111.438 45.87 111.497C45.9283 111.387 45.9923 111.279 46.0617 111.175L46.9482 109.842C47.0141 109.741 47.1819 109.717 47.3675 109.717H47.4035C47.6611 109.717 47.7749 109.777 47.7749 109.872Z" fill="#DE9B39"/>
<path d="M52.5296 111.128V113.201C52.5218 113.603 52.56 114.004 52.6434 114.397C52.6434 114.576 52.26 114.612 52.1402 114.612C51.9186 114.612 51.8706 114.223 51.8167 113.96C51.6225 114.181 51.3828 114.357 51.114 114.477C50.8452 114.596 50.5536 114.657 50.2593 114.653C49.3607 114.653 48.6719 114.223 48.6719 113.267C48.6719 111.708 50.3312 111.606 51.7508 111.588V111.152C51.7508 110.734 51.4992 110.375 50.7325 110.375C50.2264 110.395 49.7311 110.528 49.2829 110.763C49.1571 110.763 48.9594 110.405 48.9594 110.303C48.9594 110.058 49.7741 109.706 50.7025 109.706C51.8527 109.682 52.5296 110.214 52.5296 111.128ZM49.5045 113.195C49.4924 113.301 49.5047 113.408 49.5405 113.508C49.5764 113.608 49.6347 113.698 49.7111 113.772C49.7875 113.846 49.8799 113.901 49.9812 113.934C50.0825 113.967 50.1899 113.976 50.2952 113.96C50.5683 113.956 50.8376 113.897 51.0876 113.787C51.3375 113.677 51.563 113.519 51.7508 113.321V112.227C50.7744 112.233 49.5045 112.233 49.5045 113.195Z" fill="#DE9B39"/>
<path d="M54.7592 113.828C54.7592 114.939 54.1063 115.62 53.8008 115.62C53.699 115.62 53.5312 115.62 53.5312 115.477C53.5472 115.399 53.5755 115.325 53.6151 115.256C53.835 114.819 53.9441 114.335 53.9326 113.846C53.9326 113.666 54.0524 113.547 54.304 113.547H54.3639C54.6155 113.571 54.7592 113.672 54.7592 113.828Z" fill="#DE9B39"/>
<path d="M62.1155 111.128V113.201C62.1081 113.603 62.1443 114.003 62.2233 114.397C62.2233 114.576 61.8459 114.612 61.7261 114.612C61.4985 114.612 61.4566 114.223 61.3967 113.96C61.2032 114.182 60.9637 114.359 60.6947 114.478C60.4257 114.598 60.1337 114.658 59.8392 114.653C58.9407 114.653 58.2578 114.223 58.2578 113.267C58.2578 111.708 59.9171 111.606 61.3368 111.588V111.152C61.3368 110.734 61.0852 110.375 60.3124 110.375C59.8081 110.395 59.3147 110.528 58.8688 110.763C58.737 110.763 58.5453 110.405 58.5453 110.303C58.5453 110.058 59.36 109.706 60.2885 109.706C61.4386 109.682 62.1155 110.214 62.1155 111.128ZM59.0904 113.195C59.0783 113.301 59.0906 113.408 59.1265 113.508C59.1623 113.608 59.2207 113.698 59.2971 113.772C59.3735 113.846 59.4659 113.901 59.5671 113.934C59.6684 113.967 59.7758 113.976 59.8811 113.96C60.1542 113.956 60.4236 113.897 60.6735 113.787C60.9234 113.677 61.1489 113.519 61.3368 113.321V112.227C60.3604 112.233 59.0904 112.233 59.0904 113.195Z" fill="#DE9B39"/>
<path d="M67.4738 111.175V114.384C67.4738 114.515 67.366 114.587 67.1024 114.587H67.0665C66.8089 114.587 66.6951 114.515 66.6951 114.384V111.253C66.7013 111.13 66.6804 111.007 66.6341 110.894C66.5878 110.78 66.517 110.677 66.4269 110.594C66.3367 110.51 66.2293 110.447 66.1121 110.409C65.9949 110.371 65.8709 110.359 65.7486 110.374C65.5126 110.385 65.2821 110.45 65.0746 110.563C64.8671 110.675 64.688 110.834 64.5506 111.026V114.408C64.5506 114.539 64.4428 114.611 64.1852 114.611H64.1493C63.8857 114.611 63.7779 114.539 63.7779 114.408V111.163C63.7833 110.772 63.7452 110.381 63.6641 109.998C63.6641 109.825 64.0414 109.783 64.1672 109.783C64.3889 109.783 64.4308 110.153 64.4907 110.38C64.6695 110.171 64.8903 110.001 65.139 109.881C65.3876 109.762 65.6585 109.696 65.9343 109.687C66.1381 109.663 66.3447 109.685 66.539 109.751C66.7333 109.816 66.9106 109.924 67.0579 110.067C67.2053 110.209 67.319 110.382 67.391 110.574C67.4629 110.766 67.4912 110.971 67.4738 111.175Z" fill="#DE9B39"/>
<path d="M72.4845 108.762V109.736H73.2632C73.389 109.736 73.4429 109.82 73.4429 110.011V110.125C73.4429 110.316 73.389 110.399 73.2632 110.399H72.4845V113.28C72.4845 113.829 72.7122 113.961 72.9817 113.961C73.1167 113.957 73.251 113.941 73.3831 113.913C73.5088 113.913 73.5747 114.278 73.5747 114.349C73.5747 114.6 73.1494 114.624 72.8978 114.624C72.7305 114.636 72.5626 114.611 72.4064 114.55C72.2501 114.49 72.1094 114.395 71.9946 114.273C71.8798 114.151 71.7937 114.005 71.7427 113.845C71.6917 113.686 71.677 113.517 71.6998 113.351V110.376H71.2326C71.1068 110.376 71.0469 110.292 71.0469 110.101V109.987C71.0469 109.796 71.1068 109.712 71.2326 109.712H71.6998L71.8076 108.738C71.8076 108.613 71.9095 108.535 72.1071 108.535H72.197C72.4007 108.583 72.4845 108.637 72.4845 108.762Z" fill="#DE9B39"/>
<path d="M78.7999 112.168C78.7999 113.769 78.0751 114.617 76.6973 114.617C75.3196 114.617 74.5469 113.757 74.5469 112.168C74.5469 110.578 75.3136 109.676 76.6973 109.676C78.0811 109.676 78.7999 110.566 78.7999 112.168ZM75.3615 112.168C75.3615 113.398 75.7569 113.96 76.6674 113.96C77.5779 113.96 77.9912 113.363 77.9912 112.168C77.9912 110.972 77.5779 110.375 76.6674 110.375C75.7569 110.375 75.3615 110.919 75.3615 112.168Z" fill="#DE9B39"/>
<path d="M83.7796 111.127V113.201C83.7722 113.602 83.8083 114.002 83.8874 114.396C83.8874 114.575 83.51 114.611 83.3842 114.611C83.1626 114.611 83.1206 114.222 83.0607 113.959C82.8665 114.18 82.6268 114.356 82.358 114.476C82.0892 114.596 81.7976 114.656 81.5033 114.653C80.6048 114.653 79.9219 114.222 79.9219 113.266C79.9219 111.707 81.5812 111.605 83.0008 111.587V111.151C83.0008 110.733 82.7492 110.374 81.9765 110.374C81.472 110.393 80.9783 110.526 80.5329 110.763C80.4011 110.763 80.2094 110.404 80.2094 110.303C80.2094 110.058 81.0241 109.705 81.9525 109.705C83.1206 109.681 83.7796 110.213 83.7796 111.127ZM80.7845 113.195C80.7733 113.3 80.7864 113.406 80.8227 113.505C80.8589 113.604 80.9174 113.694 80.9937 113.767C81.07 113.84 81.162 113.895 81.2628 113.927C81.3636 113.96 81.4704 113.969 81.5752 113.954C81.8482 113.949 82.1176 113.89 82.3675 113.78C82.6174 113.67 82.8429 113.512 83.0308 113.314V112.221C82.0364 112.233 80.7545 112.233 80.7545 113.195H80.7845ZM81.9226 108.044C82.1457 108.36 82.3269 108.703 82.4617 109.066C82.4617 109.131 82.3958 109.161 82.2461 109.161C82.1599 109.167 82.0735 109.155 81.9922 109.126C81.9108 109.097 81.8362 109.052 81.7728 108.994C80.9941 108.104 80.9043 108.02 80.9043 107.918C80.9043 107.817 81.048 107.799 81.3475 107.799C81.647 107.799 81.8208 107.865 81.9226 108.044Z" fill="#DE9B39"/>
<path d="M89.1392 111.176V114.385C89.1392 114.517 89.0314 114.588 88.7678 114.588H88.7318C88.4743 114.588 88.3605 114.517 88.3605 114.385V111.254C88.3703 111.129 88.3522 111.004 88.3075 110.887C88.2628 110.771 88.1926 110.665 88.102 110.579C88.0114 110.492 87.9027 110.427 87.7837 110.388C87.6647 110.349 87.5384 110.336 87.414 110.352C87.1829 110.366 86.9581 110.433 86.756 110.545C86.5538 110.658 86.3796 110.814 86.2459 111.003V114.385C86.2459 114.517 86.1381 114.588 85.8745 114.588H85.8386C85.581 114.588 85.4672 114.517 85.4672 114.385V111.14C85.4724 110.749 85.4363 110.359 85.3594 109.975C85.3594 109.802 85.7368 109.76 85.8566 109.76C86.0842 109.76 86.1261 110.131 86.186 110.358C86.3648 110.148 86.5856 109.978 86.8343 109.859C87.0829 109.739 87.3539 109.673 87.6297 109.665C87.8333 109.645 88.0387 109.671 88.2312 109.74C88.4237 109.809 88.5984 109.92 88.7428 110.064C88.8871 110.209 88.9976 110.384 89.0661 110.576C89.1347 110.768 89.1596 110.973 89.1392 111.176Z" fill="#DE9B39"/>
<path d="M94.1486 108.762V109.736H94.9273C95.0531 109.736 95.107 109.82 95.107 110.011V110.125C95.107 110.316 95.0531 110.399 94.9273 110.399H94.1486V113.28C94.1486 113.829 94.3762 113.961 94.6458 113.961C94.7807 113.957 94.9151 113.941 95.0471 113.913C95.1729 113.913 95.2388 114.278 95.2388 114.349C95.2388 114.6 94.8135 114.624 94.5619 114.624C94.3946 114.636 94.2267 114.611 94.0704 114.55C93.9142 114.49 93.7735 114.395 93.6586 114.273C93.5438 114.151 93.4578 114.005 93.4068 113.845C93.3558 113.686 93.3411 113.517 93.3639 113.351V110.376H92.8966C92.7649 110.376 92.7109 110.292 92.7109 110.101V109.987C92.7109 109.796 92.7649 109.712 92.8966 109.712H93.3639L93.4717 108.738C93.4717 108.613 93.5735 108.535 93.7712 108.535H93.8611C94.0647 108.583 94.1486 108.637 94.1486 108.762Z" fill="#DE9B39"/>
<path d="M100.493 112.168C100.493 113.77 99.7686 114.618 98.3848 114.618C97.0011 114.618 96.2344 113.758 96.2344 112.168C96.2344 110.579 97.0071 109.676 98.3848 109.676C99.7626 109.676 100.493 110.567 100.493 112.168ZM97.055 112.168C97.055 113.399 97.4504 113.961 98.3609 113.961C99.2714 113.961 99.6847 113.363 99.6847 112.168C99.6847 110.973 99.2654 110.376 98.3609 110.376C97.4564 110.376 97.0311 110.919 97.0311 112.168H97.055ZM98.8521 108.147L99.3313 108.959C99.3673 109.006 99.3883 109.062 99.3912 109.121C99.3912 109.204 99.3133 109.258 99.1636 109.258C99.107 109.261 99.0505 109.252 98.9978 109.232C98.9451 109.211 98.8975 109.179 98.8581 109.139L98.4148 108.452L97.8517 109.139C97.7646 109.217 97.6513 109.259 97.5342 109.258C97.3965 109.258 97.3186 109.21 97.3186 109.127C97.3222 109.066 97.3429 109.008 97.3785 108.959L97.8937 108.147C97.9414 108.08 98.0055 108.026 98.0799 107.99C98.1543 107.955 98.2366 107.939 98.319 107.944H98.5526C98.6098 107.953 98.6641 107.976 98.7117 108.009C98.7593 108.042 98.7991 108.085 98.8281 108.135L98.8521 108.147ZM100.865 106.743C100.865 106.844 100.769 106.928 99.9902 107.812C99.9282 107.873 99.8537 107.919 99.772 107.948C99.6903 107.977 99.6033 107.987 99.517 107.979C99.3732 107.979 99.3073 107.979 99.3073 107.89C99.4365 107.524 99.6159 107.178 99.8405 106.862C99.9423 106.689 100.122 106.623 100.439 106.623C100.757 106.623 100.841 106.635 100.841 106.731L100.865 106.743Z" fill="#DE9B39"/>
<path d="M102.789 107.816V108.366C102.789 108.498 102.675 108.569 102.417 108.569H102.285C102.028 108.569 101.914 108.498 101.914 108.366V107.816C101.914 107.691 102.028 107.613 102.285 107.613H102.399C102.675 107.613 102.789 107.691 102.789 107.816ZM102.753 109.92V114.383C102.753 114.515 102.639 114.587 102.381 114.587H102.345C102.082 114.587 101.974 114.515 101.974 114.383V109.92C101.974 109.788 102.082 109.717 102.345 109.717H102.381C102.639 109.717 102.753 109.776 102.753 109.92Z" fill="#DE9B39"/>
<path d="M111.198 108.672V108.762C111.198 108.959 111.144 109.043 111.012 109.043H110.599V113.225C110.591 113.627 110.628 114.027 110.707 114.421C110.707 114.6 110.329 114.636 110.209 114.636C109.988 114.636 109.94 114.247 109.886 113.984C109.702 114.197 109.475 114.368 109.22 114.487C108.965 114.607 108.688 114.672 108.406 114.677C107.298 114.677 106.609 113.644 106.609 112.21C106.609 110.602 107.388 109.736 108.49 109.736C108.976 109.73 109.447 109.897 109.82 110.208V109.096H108.946C108.814 109.096 108.76 109.013 108.76 108.816V108.726C108.76 108.529 108.814 108.451 108.946 108.451H109.82V107.854C109.82 107.728 109.928 107.65 110.191 107.65H110.227C110.485 107.65 110.599 107.728 110.599 107.854V108.451H111.012C111.144 108.397 111.198 108.475 111.198 108.672ZM109.82 110.781C109.502 110.509 109.095 110.361 108.676 110.363C107.843 110.363 107.424 110.961 107.424 112.084C107.424 113.279 107.831 113.954 108.568 113.954C108.809 113.937 109.044 113.872 109.259 113.762C109.475 113.652 109.665 113.5 109.82 113.315V110.781Z" fill="#DE9B39"/>
<path d="M115.834 111.128V113.201C115.827 113.603 115.863 114.003 115.942 114.397C115.942 114.576 115.565 114.612 115.445 114.612C115.217 114.612 115.175 114.223 115.115 113.96C114.922 114.182 114.682 114.359 114.413 114.478C114.144 114.598 113.852 114.658 113.558 114.653C112.659 114.653 111.977 114.223 111.977 113.267C111.977 111.708 113.636 111.606 115.056 111.588V111.152C115.056 110.734 114.804 110.375 114.031 110.375C113.527 110.396 113.034 110.529 112.588 110.763C112.456 110.763 112.264 110.405 112.264 110.303C112.264 110.058 113.079 109.706 114.007 109.706C115.157 109.682 115.834 110.214 115.834 111.128ZM112.809 113.195C112.798 113.3 112.811 113.407 112.847 113.506C112.884 113.605 112.942 113.695 113.018 113.768C113.095 113.841 113.187 113.896 113.288 113.928C113.388 113.961 113.495 113.97 113.6 113.954C113.873 113.95 114.142 113.891 114.392 113.781C114.642 113.671 114.868 113.513 115.056 113.315V112.221C114.091 112.233 112.809 112.233 112.809 113.195Z" fill="#DE9B39"/>
<path d="M48.3766 40.331C58.1541 30.271 70.3058 22.8192 83.7187 18.6583C83.4911 18.73 83.2635 18.7957 83.0418 18.8734C80.1087 13.9681 75.7118 10.1001 70.4662 7.81061C65.2206 5.52111 59.3887 4.92462 53.7864 6.10459C48.1842 7.28456 43.0919 10.182 39.2219 14.3914C35.3519 18.6009 32.8979 23.9119 32.2031 29.5813C35.5048 30.1389 38.6517 31.3844 41.4384 33.2366C44.2252 35.0888 46.5893 37.5062 48.3766 40.331Z" fill="url(#paint0_linear_1969_21871)"/>
<path d="M48.375 40.332L48.5008 40.5173H52.6939C53.5177 40.5162 54.3214 40.7703 54.9942 41.2445C55.667 41.7187 56.1756 42.3895 56.4498 43.1644H62.2303C62.7597 43.1638 63.2838 43.2693 63.7715 43.4746C64.2592 43.6799 64.7007 43.9808 65.0696 44.3594L65.2434 44.5327C78.5955 35.0856 92.7862 30.3053 100.777 32.5999H100.717C100.759 32.1637 100.783 31.7215 100.783 31.2793C100.792 29.2161 100.315 27.1797 99.3888 25.3347C98.4628 23.4898 97.1145 21.8882 95.4529 20.6595C93.7913 19.4308 91.8631 18.6095 89.8243 18.262C87.7855 17.9145 85.6934 18.0506 83.7171 18.6593C70.3042 22.8202 58.1525 30.272 48.375 40.332Z" fill="url(#paint1_linear_1969_21871)"/>
<path d="M28.9766 76.7101H37.6563C38.0337 75.8796 38.4231 75.055 38.8544 74.2363C35.7808 75.7664 32.4101 76.6105 28.9766 76.7101Z" fill="url(#paint2_linear_1969_21871)"/>
<path d="M100.781 32.598C92.7904 30.3214 78.6176 35.1077 65.2655 44.5488L65.8645 45.1463H67.9971C68.7458 44.3456 69.7941 43.1386 70.8903 43.1386H75.7543C76.8985 43.1386 77.8749 44.495 78.5697 45.1463H79.6959C80.1212 44.5488 80.7561 43.2103 82.2357 43.1386H87.6269C88.1869 43.139 88.7405 43.2574 89.2515 43.486C89.7624 43.7146 90.2192 44.0483 90.592 44.4651L96.1629 50.6795C96.815 51.4054 97.1755 52.3459 97.1752 53.3207C97.1752 53.6852 97.1752 54.7667 97.1752 54.934C97.1345 55.8372 96.7858 56.6994 96.1869 57.378L92.7066 61.74C92.3338 62.2037 91.8616 62.5781 91.3246 62.8356C90.7875 63.0931 90.1995 63.2271 89.6036 63.2279H56.2982C55.9698 63.8994 55.4586 64.4651 54.823 64.8603C54.1874 65.2555 53.4531 65.4643 52.7041 65.4627H48.511C46.1636 69.2267 42.8116 72.2641 38.8308 74.2345C38.4175 75.0532 38.0282 75.8778 37.6328 76.7084H92.5029C92.8084 76.7084 93.1019 76.7084 93.4254 76.7084C98.8114 76.712 104.024 74.8073 108.133 71.334C112.242 67.8607 114.981 63.0445 115.862 57.7441C116.742 52.4437 115.707 47.0036 112.941 42.3937C110.174 37.7838 105.857 34.3038 100.757 32.5741L100.781 32.598Z" fill="url(#paint3_linear_1969_21871)"/>
<path d="M93.2234 53.3512L87.6824 47.1368H82.2913L81.0932 49.3836H77.7627L75.8518 47.1368H71.0177L68.9272 49.3657H64.5543L62.4039 47.1488H52.9274V44.5196H46.4041C44.4699 40.4691 41.2123 37.1952 37.1663 35.2356C33.1203 33.2761 28.5265 32.7474 24.1395 33.7364C19.7525 34.7255 15.8331 37.1734 13.0251 40.6781C10.2171 44.1829 8.6875 48.536 8.6875 53.0226C8.6875 57.5091 10.2171 61.8623 13.0251 65.3671C15.8331 68.8718 19.7525 71.3197 24.1395 72.3088C28.5265 73.2978 33.1203 72.7691 37.1663 70.8096C41.2123 68.85 44.4699 65.5761 46.4041 61.5256H52.9274V59.2908H89.6412L93.1036 54.9586H52.9274V53.3811L93.2234 53.3512ZM21.2154 60.3962C19.7457 60.401 18.3077 59.9703 17.0836 59.1589C15.8596 58.3475 14.9046 57.1918 14.3397 55.8384C13.7748 54.4849 13.6255 52.9947 13.9106 51.5565C14.1957 50.1183 14.9025 48.7969 15.9413 47.7598C16.9801 46.7227 18.3042 46.0166 19.7457 45.7311C21.1872 45.4455 22.6813 45.5933 24.0385 46.1557C25.3958 46.7181 26.5551 47.6698 27.3695 48.8901C28.1839 50.1105 28.6168 51.5446 28.6132 53.0106C28.6132 54.9684 27.834 56.846 26.4468 58.2309C25.0596 59.6158 23.178 60.3946 21.2154 60.3962Z" fill="#DE9B39"/>

</svg>
