<svg width="86" height="86" viewBox="0 0 86 86" fill="none"
  xmlns="http://www.w3.org/2000/svg">
  <defs>
    <linearGradient id="paint0_linear" x1="5.5" y1="10" x2="81" y2="86" gradientUnits="userSpaceOnUse">
      <stop stop-color="#1EDA19"/>
      <stop offset="1" stop-color="#17A514"/>
    </linearGradient>
  </defs>
  <path d="M2.5 43C2.5 20.624 20.7246 2.5 42.794 2.5C65.2905 2.5 83.4996 20.6396 83.4996 43C83.4996 65.345 64.8945 83.5 42.794 83.5C20.7246 83.5 2.5 65.376 2.5 43Z" fill="url(#paint0_linear)" stroke="white" stroke-width="5"/>
  <path fill-rule="evenodd" clip-rule="evenodd" d="M57.9976 31.486C59.1103 32.2857 59.3301 33.7908 58.4884 34.848L43.201 54.0478C42.7636 54.5971 42.099 54.9414 41.3761 54.9932C40.6531 55.045 39.9416 54.7992 39.4226 54.3184L27.7627 43.5185C26.7637 42.5931 26.7435 41.0737 27.7175 40.1246C28.6915 39.1756 30.2909 39.1564 31.2899 40.0817L40.8991 48.9822L54.4587 31.9523C55.3004 30.8952 56.8848 30.6864 57.9976 31.486Z" fill="white"/>
</svg>
