<svg width="47" height="24" viewBox="0 0 47 24" fill="none" xmlns="http://www.w3.org/2000/svg">
<path d="M30.3665 6.81818L33.0163 14.8324H33.1207L35.7656 6.81818H37.794L34.2045 17H31.9276L28.343 6.81818H30.3665ZM40.9796 6.81818V17H39.1351V6.81818H40.9796Z" fill="white"/>
<rect width="24" height="24" rx="6" fill="#DA251D"/>
<path d="M8.67841 17.9221L11.9951 15.4939L15.1637 17.9167C15.3099 18.0272 15.5076 18.0279 15.6538 17.918C15.8006 17.8068 15.8631 17.6094 15.809 17.4276L14.633 13.4666L17.8357 10.8872C17.978 10.7726 18.0353 10.5752 17.978 10.3955C17.9207 10.2164 17.761 10.0964 17.5813 10.0964H13.6818L12.3673 6.29068C12.3068 6.11501 12.1336 5.99224 11.9693 6.00038C11.7916 6.00242 11.6344 6.12247 11.5778 6.30017L10.3599 10.0964H6.41855C6.23952 10.0964 6.08045 10.2164 6.02248 10.3948C5.96452 10.5732 6.0212 10.7706 6.16288 10.8859L9.26447 13.4103L8.04083 17.4249C7.98609 17.6047 8.04599 17.8014 8.19025 17.9139C8.19025 17.9139 8.35511 18.0862 8.67841 17.9221Z" fill="#FFFF00"/>
</svg>
