<svg width="150" height="19" viewBox="0 0 150 19" fill="none" xmlns="http://www.w3.org/2000/svg">
<g clip-path="url(#clip0_1969_21925)">
<path d="M17.7409 7.80078C17.4179 9.12138 16.656 10.6398 15.5193 12.146C14.9559 12.8859 14.3389 13.5871 13.6728 14.2445C12.1621 15.7259 10.5477 16.8369 9.0625 17.5034C11.6067 17.5034 13.9053 16.4294 15.5193 14.7506C17.2512 12.9482 18.1795 10.4302 17.7409 7.80078Z" fill="white"/>
<path d="M15.5183 9.52859C17.0183 7.41792 18.1012 5.28396 18.4373 3.56629C18.5074 3.20765 18.5502 2.84463 18.5653 2.48008V2.3566C18.5526 1.52956 18.2687 0.936911 17.5211 0.640774C17.0047 0.48032 16.3221 0.517291 15.5191 0.751686C14.8736 0.949481 14.1507 1.28259 13.3629 1.75175C9.70825 -0.273148 5.03256 0.554262 2.3851 3.51711C0.151108 5.83852 -0.468889 9.6151 0.938576 12.4667L0.951726 12.4545C0.371568 11.1087 0.332891 9.50382 0.667449 8.05973C0.726218 7.76605 0.807927 7.47699 0.911889 7.19498C0.937416 7.12104 0.96333 7.05893 0.989243 6.98499C1.04592 6.8401 1.1154 6.70009 1.19694 6.56648C2.11398 4.7146 3.74113 3.64097 4.96797 4.18407C6.18166 4.72717 6.46594 6.55391 5.56205 8.56624C5.30369 9.08383 4.69684 10.1955 3.98634 11.3808C2.21725 14.3189 0.73204 18.1465 3.29015 18.565C4.07801 18.639 4.96913 18.4293 5.92446 17.9972C9.15207 16.7501 12.9359 13.1702 15.5183 9.52859ZM15.5183 1.40607C17.0809 0.974252 17.6495 1.9122 16.4354 4.51681C16.181 4.09965 15.8729 3.71462 15.5183 3.37071C15.0666 2.91412 14.5371 2.5067 13.9562 2.08708C14.5503 1.75175 15.0678 1.51735 15.5183 1.40607V1.40607Z" fill="white"/>
<path d="M54.77 5.68359L54.7422 7.02268H58.1323V13.2349H59.7006V6.99606H63.1182V5.68359H54.77Z" fill="white"/>
<path d="M50.226 5.6582H44.875V13.2373H46.5281V10.4792H49.0212L50.2256 10.4526C52.7188 10.4792 53.1953 8.89982 53.1953 8.09607C53.1956 7.31857 52.7752 5.6582 50.226 5.6582ZM50.0578 9.13902H46.5281V6.94368H50.0578C51.0382 6.97067 51.5143 7.47902 51.5143 8.01584C51.5441 8.65729 51.0665 9.1124 50.0578 9.13902V9.13902Z" fill="white"/>
<path d="M40.5425 11.4141L35.1637 5.68359H33.2031V13.2349H34.7719V7.53177L40.1782 13.2349H42.083V5.68359H40.5425V11.4141Z" fill="white"/>
<path d="M26.1527 11.6298L22.9591 5.6582H21.25L25.284 13.2635H26.965L31.0547 5.68482H29.3742L26.1527 11.6298Z" fill="white"/>
</g>
<path fill-rule="evenodd" clip-rule="evenodd" d="M95.8355 3.02937C95.4785 3.13146 95.1904 3.4321 95.0542 3.84465L95 4.00894V10.0003V15.9917L95.0449 16.1287C95.1893 16.5695 95.5146 16.8958 95.8918 16.9782C95.9621 16.9935 96.668 17 98.2723 17H100.553V15.7388C100.553 14.3566 100.555 14.3234 100.665 14.0324C100.72 13.8877 100.772 13.7899 100.895 13.6007C100.922 13.5589 100.995 13.4762 101.057 13.4169C101.178 13.303 101.188 13.2944 101.282 13.2249L101.343 13.1808L101.349 11.943L101.356 10.7052L101.407 10.425C101.478 10.036 101.58 9.71629 101.698 9.51609C101.721 9.47591 101.741 9.43779 101.741 9.43137C101.741 9.4022 101.905 9.1849 102.02 9.06298C102.519 8.53177 103.339 8.28318 104.494 8.31355C105.164 8.33119 105.605 8.4381 106.02 8.68353C106.558 9.00228 106.899 9.45005 107.058 10.0486C107.175 10.4864 107.208 10.9668 107.208 12.2453L107.209 13.1785L107.327 13.2619C107.686 13.5163 107.944 13.9704 107.999 14.4449C108.012 14.5527 108.019 15.0787 108.019 15.8007C108.019 16.4496 108.024 16.9804 108.03 16.9804C108.036 16.9804 108.098 16.9572 108.167 16.9288C108.502 16.7916 108.752 16.4993 108.868 16.1094L108.915 15.953V9.99078V4.02852L108.864 3.86748C108.836 3.7789 108.78 3.64609 108.738 3.57235C108.595 3.31829 108.289 3.07591 108.042 3.02232C107.886 2.98829 95.9551 2.99518 95.8355 3.02937ZM103.718 3.87188C103.728 3.89342 103.79 4.08726 103.857 4.30263L103.979 4.69422L104.513 4.70401L105.047 4.7138L104.945 4.78633C104.888 4.82621 104.783 4.90298 104.71 4.95694C104.504 5.11009 104.398 5.18796 104.291 5.26407C104.236 5.30274 104.192 5.3473 104.192 5.3631C104.192 5.3789 104.208 5.43312 104.228 5.48358C104.268 5.58662 104.513 6.35532 104.507 6.36035C104.505 6.36211 104.41 6.29372 104.296 6.20835C104.064 6.03515 103.957 5.95683 103.91 5.92774C103.893 5.91697 103.845 5.88081 103.804 5.84736C103.669 5.73674 103.662 5.73572 103.559 5.81138C103.508 5.84862 103.436 5.90066 103.4 5.92703C103.364 5.95339 103.287 6.01052 103.23 6.05397C103.173 6.09741 103.071 6.17268 103.004 6.22124C102.937 6.26979 102.863 6.32356 102.84 6.34073C102.79 6.37785 102.774 6.439 102.975 5.82271C103.053 5.58188 103.117 5.37391 103.117 5.36054C103.117 5.34716 103.065 5.29751 103.001 5.25019C102.763 5.07444 102.723 5.04474 102.606 4.95996C102.54 4.91228 102.475 4.86382 102.463 4.85227C102.451 4.84072 102.406 4.80485 102.363 4.77254L102.285 4.7138L102.809 4.70401L103.334 4.69422L103.494 4.18991L103.654 3.6856L103.678 3.75916C103.691 3.79961 103.709 3.85034 103.718 3.87188ZM126.582 4.41136C126.092 4.44263 124.971 4.55315 124.9 4.57729C124.881 4.58368 124.876 5.74604 124.876 10.3023V16.0192L124.937 16.0288C125.145 16.0612 125.486 16.1017 125.706 16.12C125.846 16.1317 126.011 16.1491 126.073 16.1586C126.136 16.1681 126.472 16.1866 126.82 16.1996C128.306 16.2552 129.353 16.1117 130.297 15.723C130.555 15.6166 130.867 15.4526 131.038 15.3336C131.083 15.3024 131.124 15.277 131.131 15.277C131.138 15.277 131.237 15.2029 131.352 15.1123C132.03 14.5767 132.486 13.9026 132.777 13.0058C132.886 12.6717 132.921 12.5367 132.983 12.2164C133.036 11.9443 133.059 11.7771 133.119 11.224C133.152 10.9227 133.152 9.82069 133.119 9.52059C133.052 8.90666 133.032 8.76255 132.973 8.46813C132.756 7.38217 132.356 6.55137 131.73 5.88646C131.375 5.50954 131.05 5.26624 130.551 5.00444C130.443 4.94727 130.346 4.90034 130.337 4.90016C130.327 4.89997 130.285 4.88326 130.242 4.86306C129.784 4.64547 129.076 4.48349 128.261 4.40956C128.039 4.38941 126.908 4.39062 126.582 4.41136ZM146.418 4.40323C146.125 4.43562 145.499 4.56946 145.457 4.60888C145.448 4.61812 145.428 4.62569 145.414 4.62569C145.331 4.62569 144.878 4.8488 144.679 4.98723C144.64 5.01458 144.574 5.06042 144.533 5.08912C144.42 5.16668 144.12 5.4776 144.006 5.63404C143.696 6.06008 143.496 6.58724 143.427 7.16125C143.394 7.42926 143.399 8.08684 143.435 8.35561C143.478 8.67346 143.584 9.02946 143.709 9.27585C143.998 9.84299 144.484 10.2615 145.277 10.6253C145.366 10.6657 145.464 10.7112 145.497 10.7265C145.53 10.7417 145.562 10.7541 145.569 10.7541C145.576 10.7541 145.617 10.7708 145.66 10.7911C145.704 10.8115 145.901 10.8946 146.098 10.9759C146.9 11.3069 147.147 11.4431 147.376 11.6811C147.517 11.8278 147.634 12.0195 147.692 12.203C147.755 12.4 147.765 12.838 147.711 13.0718C147.589 13.6081 147.228 13.9358 146.578 14.1022C146.335 14.1646 146.031 14.1864 145.617 14.1714C145.249 14.1581 145.195 14.1522 144.908 14.096C144.58 14.0315 144.107 13.8796 143.769 13.7302C143.548 13.6328 143.554 13.6322 143.52 13.7531C143.444 14.0191 143.338 14.4159 143.317 14.5134C143.304 14.5726 143.282 14.6651 143.268 14.719C143.23 14.8575 143.128 15.4705 143.128 15.5551C143.128 15.6248 143.13 15.6267 143.274 15.6889C143.609 15.8336 143.998 15.963 144.382 16.0572C144.881 16.1796 145.725 16.2399 146.393 16.2008C147.398 16.1421 148.199 15.8542 148.847 15.3188C148.989 15.2013 149.292 14.8766 149.365 14.7638C149.592 14.4111 149.696 14.2064 149.802 13.9064C149.87 13.7118 149.94 13.4324 149.975 13.2113C150.008 13.0072 150.008 12.0596 149.976 11.8408C149.859 11.0486 149.556 10.4622 149.03 10.0088C148.839 9.8444 148.736 9.78022 148.289 9.54691C147.918 9.35329 147.816 9.30426 147.554 9.19446C147.08 8.99537 146.829 8.88808 146.736 8.84388C146.703 8.8284 146.672 8.81573 146.667 8.81573C146.636 8.81573 146.194 8.58459 146.087 8.51311C145.85 8.35338 145.693 8.14217 145.615 7.87591C145.522 7.55629 145.576 7.06815 145.733 6.8162C145.807 6.69669 145.983 6.50534 146.019 6.50534C146.029 6.50534 146.051 6.49308 146.068 6.47808C146.183 6.3729 146.659 6.27038 147.033 6.2704C147.469 6.27042 148.08 6.35951 148.454 6.47761C148.61 6.52656 148.649 6.54238 148.954 6.67981C149.053 6.72418 149.143 6.76032 149.154 6.76016C149.165 6.76001 149.188 6.72684 149.205 6.68645C149.386 6.24737 149.523 5.73386 149.595 5.22366C149.634 4.94584 149.631 4.93037 149.533 4.9088C149.5 4.90157 149.447 4.88364 149.416 4.86891C149.282 4.80563 148.76 4.64653 148.388 4.55583C147.927 4.44333 147.608 4.40683 147.031 4.40065C146.735 4.39749 146.46 4.39865 146.418 4.40323ZM107.32 4.95745C107.404 5.2206 107.473 5.44745 107.473 5.46155C107.473 5.48209 107.58 5.4872 108.014 5.4872H108.555L108.443 5.57078C108.381 5.61676 108.312 5.66743 108.29 5.68336C108.126 5.79977 108.009 5.88672 108.001 5.89717C107.995 5.90397 107.945 5.94197 107.888 5.98164C107.83 6.02133 107.763 6.07088 107.737 6.0918L107.691 6.12982L107.847 6.61267C107.933 6.87823 108 7.10383 107.997 7.11401C107.994 7.12419 107.932 7.08883 107.859 7.03543C107.787 6.98204 107.699 6.91802 107.665 6.89317C107.632 6.86832 107.587 6.83476 107.567 6.81861C107.547 6.80246 107.502 6.76888 107.468 6.74399C107.435 6.71909 107.356 6.65972 107.294 6.61203C107.231 6.56435 107.175 6.52523 107.167 6.52513C107.16 6.52501 107.046 6.60486 106.913 6.70258C106.78 6.8003 106.651 6.89501 106.627 6.91306C106.602 6.93111 106.56 6.96375 106.532 6.98558C106.462 7.04217 106.332 7.13188 106.32 7.13188C106.315 7.13188 106.381 6.91026 106.468 6.6394C106.555 6.36853 106.622 6.13652 106.618 6.12381C106.613 6.11112 106.567 6.07061 106.516 6.0338C106.464 5.99701 106.369 5.92725 106.304 5.87879C106.239 5.83033 106.166 5.77746 106.143 5.76131C105.939 5.61932 105.872 5.57123 105.827 5.53256L105.774 5.4878L106.305 5.48262L106.837 5.47741L106.871 5.37951C106.889 5.32567 106.961 5.09876 107.031 4.87526C107.101 4.65178 107.16 4.47117 107.163 4.47395C107.166 4.47671 107.237 4.69428 107.32 4.95745ZM121.204 4.50955C121.118 4.51955 120.978 4.53878 120.893 4.55229L120.737 4.57686L120.733 10.2986L120.728 16.0203L120.77 16.0288C121.361 16.1482 122.207 16.1482 122.797 16.0288L122.84 16.0203L122.835 10.2985L122.83 4.57675L122.613 4.54209C122.359 4.50136 121.453 4.48045 121.204 4.50955ZM137.556 4.49864C137.535 4.50252 137.384 4.5212 137.219 4.54019C136.952 4.57105 136.919 4.57894 136.905 4.61489C136.897 4.63699 136.859 4.7652 136.82 4.89981C136.782 5.03442 136.732 5.21064 136.708 5.2914C136.669 5.42546 136.623 5.58743 136.5 6.02564C136.476 6.11179 136.431 6.27038 136.4 6.37807C136.369 6.48576 136.317 6.67078 136.284 6.78924C136.251 6.9077 136.204 7.0707 136.18 7.15146C136.157 7.23223 136.111 7.39082 136.079 7.5039C136.047 7.61697 135.979 7.85486 135.928 8.03254C135.877 8.21023 135.808 8.45253 135.775 8.57098C135.742 8.68944 135.691 8.87006 135.662 8.97237C135.633 9.07467 135.582 9.25529 135.549 9.37375C135.515 9.4922 135.469 9.6552 135.444 9.73597C135.42 9.81674 135.374 9.97974 135.341 10.0982C135.308 10.2166 135.257 10.3973 135.227 10.4996C135.198 10.6019 135.151 10.7649 135.124 10.8618C135.096 10.9587 135.05 11.1217 135.02 11.224C134.991 11.3263 134.945 11.4893 134.917 11.5862C134.89 11.6832 134.841 11.855 134.809 11.968C134.777 12.0811 134.726 12.2617 134.695 12.3694C134.665 12.4771 134.621 12.6313 134.597 12.7121C134.573 12.7928 134.526 12.9558 134.493 13.0743C134.459 13.1927 134.412 13.3602 134.387 13.4463C134.284 13.8094 134.228 14.0068 134.172 14.2099C134.139 14.3284 134.099 14.4649 134.084 14.5134C134.068 14.5619 134.036 14.672 134.012 14.7581C133.892 15.1885 133.85 15.3397 133.806 15.4924C133.687 15.9086 133.661 16.0068 133.671 16.0171C133.677 16.0231 133.726 16.0349 133.781 16.0433C133.835 16.0516 133.947 16.0694 134.03 16.0828C134.278 16.1227 135.132 16.1167 135.407 16.0731C135.662 16.0325 135.718 16.0147 135.718 15.9734C135.718 15.9575 135.738 15.867 135.764 15.7723C135.789 15.6776 135.837 15.4943 135.87 15.3651C135.903 15.2359 135.949 15.0553 135.973 14.9637C136.04 14.7072 136.195 14.1044 136.265 13.8232L136.288 13.7302H137.992H139.696L139.708 13.7841C139.715 13.8137 139.737 13.904 139.757 13.9847C139.777 14.0655 139.819 14.2329 139.85 14.3568C139.881 14.4806 139.93 14.6788 139.96 14.7973C140.009 14.9965 140.175 15.6531 140.238 15.9035C140.254 15.9628 140.268 16.0134 140.27 16.016C140.272 16.0186 140.347 16.0339 140.436 16.05C140.944 16.142 141.705 16.1419 142.296 16.0497C142.393 16.0345 142.476 16.0192 142.479 16.0156C142.483 16.0121 142.456 15.9039 142.419 15.7752C142.382 15.6466 142.331 15.4686 142.306 15.3798C142.194 14.9813 142.161 14.8639 142.111 14.6896C142.022 14.3781 141.947 14.11 141.837 13.7204C141.78 13.5158 141.708 13.2603 141.677 13.1526C141.647 13.0449 141.6 12.8775 141.572 12.7806C141.545 12.6837 141.503 12.5339 141.478 12.4477C141.454 12.3616 141.403 12.181 141.365 12.0464C141.327 11.9118 141.275 11.7289 141.25 11.6401C141.225 11.5512 141.184 11.4059 141.159 11.317C141.087 11.0585 140.997 10.7394 140.939 10.5387C140.91 10.4364 140.86 10.2558 140.827 10.1374C140.794 10.0189 140.748 9.85589 140.725 9.77513C140.701 9.69436 140.656 9.53577 140.624 9.4227C140.537 9.11034 140.385 8.57177 140.194 7.89549C140.168 7.80395 140.126 7.65417 140.1 7.56263C140.074 7.4711 140.027 7.30369 139.995 7.19062C139.877 6.77465 139.83 6.60905 139.782 6.43681C139.755 6.33989 139.706 6.16808 139.674 6.05501C139.584 5.7375 139.516 5.49742 139.451 5.26203C139.324 4.80818 139.297 4.71167 139.274 4.64527L139.252 4.57675L138.998 4.54219C138.765 4.51053 137.67 4.47744 137.556 4.49864ZM100.251 4.61475C100.25 4.65824 100.523 5.49771 100.542 5.51187C100.553 5.52005 100.793 5.52446 101.074 5.52166C101.356 5.51886 101.583 5.52297 101.578 5.53078C101.573 5.53859 101.521 5.57779 101.462 5.61787C101.403 5.65797 101.329 5.71117 101.298 5.73611C101.219 5.79906 101.216 5.80135 101.1 5.883C101.043 5.923 100.954 5.98734 100.902 6.02597C100.85 6.0646 100.788 6.10987 100.765 6.12657C100.735 6.14875 100.728 6.16557 100.74 6.18916C100.749 6.2069 100.796 6.34919 100.845 6.50534C100.893 6.66148 100.945 6.82008 100.96 6.85777C100.986 6.9232 101.042 7.1253 101.043 7.15649C101.043 7.16897 100.908 7.07307 100.704 6.91502C100.656 6.87844 100.579 6.82178 100.337 6.64637L100.206 6.55149L100.09 6.63253C100.026 6.67709 99.9522 6.7306 99.926 6.75139C99.8998 6.77221 99.8595 6.80246 99.8364 6.81861C99.8133 6.83476 99.7661 6.87001 99.7315 6.89693C99.5616 7.02913 99.3803 7.15436 99.3718 7.14549C99.3665 7.14003 99.3912 7.04442 99.4267 6.93303C99.5941 6.40673 99.6714 6.15155 99.6646 6.14732C99.6606 6.14478 99.6233 6.11603 99.5818 6.08343C99.5403 6.05083 99.4597 5.99129 99.4027 5.95112C99.3457 5.91096 99.2523 5.8428 99.1953 5.79969C99.1382 5.75659 99.034 5.68045 98.9636 5.6305C98.8931 5.58055 98.8324 5.53448 98.8286 5.52812C98.8248 5.52177 99.0522 5.51886 99.3338 5.52166C99.6154 5.52446 99.855 5.52005 99.8662 5.51187C99.8775 5.50368 99.9482 5.29874 100.023 5.05645C100.099 4.81415 100.169 4.59396 100.179 4.56715C100.197 4.51987 100.199 4.51953 100.225 4.55621C100.239 4.577 100.251 4.60335 100.251 4.61475ZM128.32 6.42712C128.881 6.47865 129.419 6.68521 129.76 6.97942C130.146 7.31166 130.355 7.60937 130.556 8.11086C130.655 8.35995 130.716 8.55007 130.761 8.75699C130.823 9.04571 130.831 9.09495 130.872 9.47973C130.95 10.2258 130.905 11.2919 130.769 11.8799C130.654 12.375 130.448 12.8595 130.211 13.1927C129.949 13.5613 129.558 13.8642 129.16 14.0063C128.659 14.1854 127.866 14.2616 127.242 14.1905C127.108 14.1752 126.995 14.1622 126.993 14.1618C126.99 14.1613 126.988 12.4302 126.988 10.3147C126.988 7.25917 126.993 6.46526 127.011 6.45278C127.07 6.41386 127.981 6.39598 128.32 6.42712ZM138.254 7.96402C138.292 8.11478 138.338 8.30421 138.357 8.38498C138.376 8.46574 138.423 8.65518 138.461 8.80594C138.499 8.9567 138.567 9.22984 138.612 9.41291C138.702 9.77865 138.794 10.1475 138.942 10.7443C138.996 10.9597 139.076 11.2835 139.12 11.4639L139.201 11.7918H137.986C137.318 11.7918 136.776 11.7849 136.781 11.7763C136.786 11.7678 136.825 11.6246 136.869 11.4582C136.912 11.2917 136.963 11.0938 136.983 11.0184C137.003 10.9431 137.039 10.8021 137.064 10.7052C137.089 10.6082 137.141 10.41 137.179 10.2646C137.218 10.1192 137.269 9.921 137.294 9.82408C137.318 9.72716 137.358 9.56856 137.384 9.47165C137.409 9.37473 137.461 9.17648 137.5 9.0311C137.538 8.88573 137.584 8.7051 137.603 8.62972C137.653 8.42727 137.733 8.11869 137.773 7.97381C137.792 7.90381 137.839 7.72759 137.876 7.58221C137.913 7.43684 137.962 7.25412 137.984 7.17617L138.025 7.03444L138.105 7.36218C138.149 7.54243 138.216 7.81325 138.254 7.96402ZM98.0263 7.60743L98.1865 8.10107L98.7035 8.11086L99.2204 8.12065L99.1183 8.19318C99.0621 8.23306 98.9568 8.30987 98.8842 8.36385C98.7508 8.46304 98.6339 8.54878 98.4788 8.66109C98.4321 8.69486 98.3903 8.72598 98.3858 8.7302C98.3814 8.73443 98.3954 8.78405 98.417 8.84044C98.4567 8.94427 98.705 9.72589 98.705 9.74705C98.705 9.75336 98.6817 9.73955 98.6532 9.71635C98.6247 9.69315 98.4656 9.5743 98.2997 9.45222C98.1337 9.33016 97.9763 9.21271 97.9499 9.19119C97.9235 9.16969 97.8887 9.14911 97.8726 9.14545C97.8448 9.13914 97.6956 9.23822 97.4695 9.41291C97.4138 9.45598 97.3122 9.53087 97.2438 9.57933C97.1753 9.62779 97.1015 9.68287 97.0797 9.70171C97.0141 9.75835 96.9862 9.73785 97.026 9.66227C97.043 9.62997 97.1002 9.45555 97.1784 9.19753C97.198 9.13292 97.2355 9.01429 97.2619 8.93389C97.3205 8.75484 97.3211 8.72809 97.2673 8.68825C97.244 8.67098 97.0892 8.55655 96.9232 8.43397C96.7573 8.31138 96.5948 8.19073 96.5622 8.16586L96.5028 8.12065L97.0147 8.11086L97.5266 8.10107L97.6869 7.59905C97.775 7.32294 97.8514 7.10081 97.8566 7.10543C97.8617 7.11003 97.9381 7.33594 98.0263 7.60743ZM115.411 7.62069C114.011 7.76329 112.934 8.7416 112.491 10.2744C112.332 10.8229 112.275 11.2613 112.273 11.9387C112.271 12.4952 112.305 12.8624 112.397 13.2995C112.448 13.5466 112.57 13.9701 112.602 14.0141C112.609 14.0249 112.622 14.0557 112.63 14.0826C112.677 14.2453 112.922 14.6867 113.082 14.8952C113.29 15.1671 113.599 15.4551 113.865 15.6254C114.116 15.7861 114.517 15.9606 114.883 16.0678C115.42 16.2254 116.457 16.2566 117.23 16.1384C117.712 16.0647 118.054 15.9746 118.56 15.788L118.663 15.7498L118.669 15.626C118.686 15.2715 118.534 14.5767 118.346 14.1552L118.281 14.0076L118.104 14.0745C117.522 14.2955 116.687 14.4382 116.165 14.4058C115.429 14.36 114.878 14.0967 114.594 13.6546C114.41 13.369 114.346 13.161 114.289 12.6778L114.282 12.6142H116.655C118.109 12.6142 119.033 12.6071 119.04 12.5958C119.092 12.5085 119.125 11.4055 119.089 10.9885C119.029 10.3055 118.827 9.63122 118.533 9.13012C118.217 8.59203 117.756 8.15875 117.222 7.90001C116.805 7.69734 116.479 7.62376 115.948 7.61243C115.741 7.608 115.499 7.61172 115.411 7.62069ZM116.207 9.38115C116.571 9.49269 116.817 9.73147 117.003 10.1556C117.079 10.3303 117.156 10.6493 117.175 10.8765L117.188 11.0282H115.743C114.6 11.0282 114.298 11.0231 114.298 11.0037C114.299 10.9177 114.362 10.5809 114.403 10.4423C114.584 9.83884 114.892 9.50567 115.382 9.38369C115.609 9.32728 115.611 9.32711 115.854 9.33498C116.006 9.33991 116.122 9.35499 116.207 9.38115ZM103.905 9.48234C103.759 9.49998 103.511 9.57904 103.406 9.6413C103.141 9.79835 102.968 10.0292 102.866 10.3625C102.777 10.6515 102.768 10.7853 102.768 11.9191V12.9764L104.272 12.9814L105.776 12.9864V11.9725C105.776 10.8952 105.766 10.7325 105.688 10.4534C105.604 10.1507 105.527 10.0013 105.374 9.84436C105.168 9.63169 104.947 9.52553 104.621 9.48151C104.461 9.45996 104.086 9.46037 103.905 9.48234ZM97.714 11.0968C97.785 11.3229 97.8525 11.5203 97.864 11.5354C97.8814 11.5583 97.9703 11.5609 98.3992 11.551C98.6899 11.5443 98.9092 11.5465 98.9034 11.5562C98.8979 11.5656 98.8403 11.6106 98.7756 11.6562C98.7109 11.7018 98.6537 11.7444 98.6485 11.7508C98.6433 11.7573 98.6009 11.7889 98.5542 11.8212C98.4857 11.8685 98.0961 12.1523 98.0654 12.1772C98.0593 12.1821 98.3256 13.0292 98.3804 13.1792C98.3903 13.2062 98.3459 13.1787 98.1557 13.0394C97.8965 12.8496 97.8183 12.7913 97.6825 12.6865L97.5367 12.574L97.472 12.6186C97.4364 12.6431 97.2934 12.7489 97.1542 12.8538C97.015 12.9587 96.8722 13.0662 96.8368 13.0928C96.6596 13.2258 96.6599 13.2485 96.8319 12.7155C96.9177 12.4498 96.9882 12.2174 96.9885 12.1991C96.9889 12.18 96.9434 12.1345 96.8808 12.0916C96.8212 12.0507 96.7597 12.0066 96.7441 11.9936C96.7286 11.9806 96.5886 11.8763 96.4331 11.7619C96.2776 11.6475 96.1472 11.5506 96.1434 11.5466C96.1395 11.5425 96.373 11.5446 96.6623 11.5511L97.1883 11.5629L97.2196 11.4865C97.2369 11.4444 97.313 11.2115 97.3888 10.9689L97.5266 10.5278L97.5557 10.6067C97.5718 10.6501 97.643 10.8706 97.714 11.0968ZM98.206 14.5134L98.3596 14.9931L98.8792 15.0029L99.3989 15.0127L99.3335 15.0616C99.2976 15.0885 99.2285 15.1417 99.1799 15.1797C99.1313 15.2176 99.0449 15.2814 98.9879 15.3213C98.9308 15.3612 98.829 15.4343 98.7616 15.4837C98.6942 15.5331 98.6242 15.5839 98.6061 15.5964C98.5879 15.609 98.5732 15.6326 98.5735 15.6488C98.5737 15.6651 98.6444 15.8965 98.7307 16.163C98.817 16.4295 98.8817 16.6476 98.8744 16.6476C98.8623 16.6476 98.7947 16.5965 98.6673 16.4913C98.6414 16.4698 98.6138 16.4522 98.6061 16.452C98.5983 16.4519 98.5758 16.4363 98.5561 16.4175C98.5364 16.3987 98.4919 16.3629 98.4571 16.338C98.4224 16.3131 98.3181 16.236 98.2253 16.1667C98.064 16.046 98.0034 16.0193 97.9801 16.0586C97.9742 16.0684 97.9164 16.1139 97.8517 16.1595C97.787 16.2051 97.7298 16.2479 97.7246 16.2546C97.7194 16.2612 97.6905 16.2841 97.6605 16.3054C97.6304 16.3267 97.5871 16.3573 97.5643 16.3735C97.4451 16.4577 97.4065 16.4862 97.3314 16.545C97.2863 16.5803 97.2336 16.6179 97.2144 16.6286C97.173 16.6516 97.1674 16.6729 97.3469 16.1287C97.4733 15.7458 97.5072 15.631 97.4961 15.6226C97.4921 15.6196 97.4422 15.5846 97.3852 15.5446C97.3281 15.5047 97.2348 15.4365 97.1778 15.393C97.1207 15.3495 97.0526 15.299 97.0263 15.2808C97.0001 15.2625 96.908 15.1948 96.8217 15.1301L96.6647 15.0127L97.1828 15.0075L97.7009 15.0023L97.7488 14.8606C97.7752 14.7827 97.8284 14.6177 97.867 14.4938C97.9938 14.0874 98.0333 13.9775 98.0429 14.0058C98.0481 14.0211 98.1215 14.2496 98.206 14.5134Z" fill="white"/>
<line x1="79.25" y1="4" x2="79.25" y2="16" stroke="white" stroke-width="0.5"/>
<defs>
<clipPath id="clip0_1969_21925">
<rect width="63" height="19" fill="white"/>
</clipPath>
</defs>
</svg>
