<svg width="32" height="40" viewBox="0 0 32 40" fill="none" xmlns="http://www.w3.org/2000/svg">
<rect width="32" height="40" fill="#E5E5E5"/>
<g clip-path="url(#clip0_177_469)">
<rect width="375" height="812" transform="translate(-28 -510)" fill="#F3F5FA"/>
<rect x="-12" y="-8" width="343" height="56" rx="8" fill="white"/>
<g clip-path="url(#clip1_177_469)">
<path d="M22.4178 0H1.68782C1.11068 0 0.642822 0.467857 0.642822 1.37571V39.2857C0.642822 39.5321 1.11068 40 1.68782 40H30.3121C30.8893 40 31.3571 39.5321 31.3571 39.2857V9.27C31.3571 8.77286 31.2907 8.61286 31.1735 8.495L22.8621 0.183571C22.7443 0.0664286 22.5843 0 22.4178 0Z" fill="#E9E9E0"/>
<path fill-rule="evenodd" clip-rule="evenodd" d="M6 12.75V15.25H9.75V12.75H6ZM6 16.5V19H9.75V16.5H6ZM6 20.25V22.75H9.75V20.25H6ZM11 22.75H14.75V20.25H11V22.75ZM16 22.75H19.75V20.25H16V22.75ZM21 22.75H24.75V20.25H21V22.75ZM24.75 19V16.5H21V19H24.75ZM24.75 15.25V12.75H21V15.25H24.75ZM11 19V16.5H14.75V19H11ZM11 15.25H14.75V12.75H11V15.25ZM16 19V16.5H19.75V19H16ZM16 15.25H19.75V12.75H16V15.25Z" fill="#19AC65"/>
<path fill-rule="evenodd" clip-rule="evenodd" d="M9.75 9H6V11.5H9.75V9ZM9.75 22.75V20.25H6V22.75H9.75ZM6 19H9.75V16.5H6V19ZM6 15.25H9.75V12.75H6V15.25Z" fill="#27663F"/>
<path d="M22.7856 0.10791V8.57148H31.2492L22.7856 0.10791Z" fill="#D9D7CA"/>
<path d="M30.3121 40H1.68782C1.11068 40 0.642822 39.5322 0.642822 38.955V27.8572H31.3571V38.955C31.3571 39.5322 30.8892 40 30.3121 40Z" fill="#27663F"/>
<path d="M5.15527 30.3906L6.66406 32.9834L8.17285 30.3906H9.58398L7.43555 33.9111L9.6377 37.5H8.21191L6.66406 34.8584L5.11621 37.5H3.68555L5.89258 33.9111L3.73926 30.3906H5.15527ZM14.9941 36.5283V37.5H11.4248V36.5283H14.9941ZM11.7666 30.3906V37.5H10.541V30.3906H11.7666ZM19.6816 35.6689C19.6816 35.5225 19.6589 35.3923 19.6133 35.2783C19.571 35.1644 19.4945 35.0602 19.3838 34.9658C19.2731 34.8714 19.1169 34.7803 18.915 34.6924C18.7165 34.6012 18.4626 34.5085 18.1533 34.4141C17.8148 34.3099 17.5023 34.1943 17.2158 34.0674C16.9326 33.9372 16.6852 33.7874 16.4736 33.6182C16.262 33.4456 16.0977 33.2487 15.9805 33.0273C15.8633 32.8027 15.8047 32.5439 15.8047 32.251C15.8047 31.9613 15.8649 31.6976 15.9854 31.46C16.109 31.2223 16.2832 31.0173 16.5078 30.8447C16.7357 30.6689 17.0042 30.5339 17.3135 30.4395C17.6227 30.3418 17.9645 30.293 18.3389 30.293C18.8662 30.293 19.3203 30.3906 19.7012 30.5859C20.0853 30.7812 20.3799 31.0433 20.585 31.3721C20.7933 31.7008 20.8975 32.0638 20.8975 32.4609H19.6816C19.6816 32.2266 19.6312 32.0199 19.5303 31.8408C19.4326 31.6585 19.2829 31.5153 19.0811 31.4111C18.8825 31.307 18.6302 31.2549 18.3242 31.2549C18.0345 31.2549 17.7936 31.2988 17.6016 31.3867C17.4095 31.4746 17.2663 31.5934 17.1719 31.7432C17.0775 31.8929 17.0303 32.0622 17.0303 32.251C17.0303 32.3844 17.0612 32.5065 17.123 32.6172C17.1849 32.7246 17.2793 32.8255 17.4062 32.9199C17.5332 33.0111 17.6927 33.0973 17.8848 33.1787C18.0768 33.2601 18.3031 33.3382 18.5635 33.4131C18.9574 33.5303 19.3008 33.6605 19.5938 33.8037C19.8867 33.9437 20.1309 34.1032 20.3262 34.2822C20.5215 34.4613 20.668 34.6647 20.7656 34.8926C20.8633 35.1172 20.9121 35.3727 20.9121 35.6592C20.9121 35.9587 20.8519 36.2288 20.7314 36.4697C20.611 36.7074 20.4385 36.9108 20.2139 37.0801C19.9925 37.2461 19.7256 37.3747 19.4131 37.4658C19.1038 37.5537 18.7588 37.5977 18.3779 37.5977C18.0361 37.5977 17.6992 37.5521 17.3672 37.4609C17.0384 37.3698 16.7389 37.2314 16.4688 37.0459C16.1986 36.8571 15.9837 36.6227 15.8242 36.3428C15.6647 36.0596 15.585 35.7292 15.585 35.3516H16.8105C16.8105 35.5827 16.8496 35.7796 16.9277 35.9424C17.0091 36.1051 17.1214 36.2386 17.2646 36.3428C17.4079 36.4437 17.5739 36.5186 17.7627 36.5674C17.9548 36.6162 18.1598 36.6406 18.3779 36.6406C18.6644 36.6406 18.9036 36.5999 19.0957 36.5186C19.291 36.4372 19.4375 36.3232 19.5352 36.1768C19.6328 36.0303 19.6816 35.861 19.6816 35.6689ZM22.9287 30.3906L24.4375 32.9834L25.9463 30.3906H27.3574L25.209 33.9111L27.4111 37.5H25.9854L24.4375 34.8584L22.8896 37.5H21.459L23.666 33.9111L21.5127 30.3906H22.9287Z" fill="white"/>
</g>
</g>
<rect x="-5927" y="-2867" width="11831" height="3608" stroke="#5C5B5B" stroke-width="12" stroke-dasharray="100 100"/>
<defs>
<clipPath id="clip0_177_469">
<rect width="375" height="812" fill="white" transform="translate(-28 -510)"/>
</clipPath>
<clipPath id="clip1_177_469">
<rect width="40" height="40" fill="white" transform="translate(-4)"/>
</clipPath>
</defs>
</svg>
