<svg width="40" height="40" viewBox="0 0 40 40" fill="none" xmlns="http://www.w3.org/2000/svg">
<mask id="mask0_8776_7668" style="mask-type:alpha" maskUnits="userSpaceOnUse" x="0" y="0" width="40" height="40">
<rect width="40" height="40" fill="#D9D9D9"/>
</mask>
<g mask="url(#mask0_8776_7668)">
<path d="M7.5 35C6.80556 35 6.21528 34.7569 5.72917 34.2708C5.24306 33.7847 5 33.1944 5 32.5V29.3333L11.6667 23.4167V35H7.5ZM13.3333 35V28.3333H26.6667V35H13.3333ZM28.3333 35V21.3333L21.2083 15L26.25 10.5417L34.1667 17.5833C34.4444 17.8333 34.6528 18.1181 34.7917 18.4375C34.9306 18.7569 35 19.0972 35 19.4583V32.5C35 33.1944 34.7569 33.7847 34.2708 34.2708C33.7847 34.7569 33.1944 35 32.5 35H28.3333ZM5 27.0833V19.4583C5 19.0972 5.06944 18.75 5.20833 18.4167C5.34722 18.0833 5.55556 17.8056 5.83333 17.5833L18.3333 6.5C18.5556 6.27778 18.8125 6.11806 19.1042 6.02083C19.3958 5.92361 19.6944 5.875 20 5.875C20.3056 5.875 20.6042 5.92361 20.8958 6.02083C21.1875 6.11806 21.4444 6.27778 21.6667 6.5L25 9.45833L5 27.0833Z" fill="white"/>
</g>
</svg>
