<svg width="41" height="40" viewBox="0 0 41 40" fill="none" xmlns="http://www.w3.org/2000/svg">
<mask id="mask0_8776_7674" style="mask-type:alpha" maskUnits="userSpaceOnUse" x="0" y="0" width="41" height="40">
<rect x="0.916626" width="40" height="40" fill="#D9D9D9"/>
</mask>
<g mask="url(#mask0_8776_7674)">
<path d="M7.91663 35C6.81206 35 5.91663 34.1046 5.91663 33V13.7222C5.91663 12.6176 6.81206 11.7222 7.91663 11.7222H14.1111C15.2157 11.7222 16.1111 10.8268 16.1111 9.72221V8.89423C16.1111 8.35774 16.3266 7.84373 16.7093 7.46771L19.5148 4.71081C20.293 3.94619 21.5403 3.94619 22.3184 4.71081L25.124 7.46771C25.5066 7.84373 25.7222 8.35774 25.7222 8.89423V16.5555C25.7222 17.6601 26.6176 18.5555 27.7222 18.5555H33.9166C35.0212 18.5555 35.9166 19.451 35.9166 20.5555V33C35.9166 34.1046 35.0212 35 33.9166 35H7.91663ZM8.69438 30.2222C8.69438 31.3268 9.58981 32.2222 10.6944 32.2222H10.75C11.8545 32.2222 12.75 31.3268 12.75 30.2222V30.1667C12.75 29.0621 11.8545 28.1667 10.75 28.1667H10.6944C9.58981 28.1667 8.69438 29.0621 8.69438 30.1667V30.2222ZM8.69438 23.3889C8.69438 24.4935 9.58981 25.3889 10.6944 25.3889H10.75C11.8545 25.3889 12.75 24.4935 12.75 23.3889V23.3333C12.75 22.2288 11.8545 21.3333 10.75 21.3333H10.6944C9.58981 21.3333 8.69438 22.2288 8.69438 23.3333V23.3889ZM8.69438 16.5555C8.69438 17.6601 9.58981 18.5555 10.6944 18.5555H10.75C11.8545 18.5555 12.75 17.6601 12.75 16.5555V16.5C12.75 15.3954 11.8545 14.5 10.75 14.5H10.6944C9.58981 14.5 8.69438 15.3954 8.69438 16.5V16.5555ZM18.8888 30.2222C18.8888 31.3268 19.7843 32.2222 20.8888 32.2222H20.9444C22.049 32.2222 22.9444 31.3268 22.9444 30.2222V30.1667C22.9444 29.0621 22.049 28.1667 20.9444 28.1667H20.8888C19.7843 28.1667 18.8888 29.0621 18.8888 30.1667V30.2222ZM18.8888 23.3889C18.8888 24.4935 19.7843 25.3889 20.8888 25.3889H20.9444C22.049 25.3889 22.9444 24.4935 22.9444 23.3889V23.3333C22.9444 22.2288 22.049 21.3333 20.9444 21.3333H20.8888C19.7843 21.3333 18.8888 22.2288 18.8888 23.3333V23.3889ZM18.8888 16.5555C18.8888 17.6601 19.7843 18.5555 20.8888 18.5555H20.9444C22.049 18.5555 22.9444 17.6601 22.9444 16.5555V16.5C22.9444 15.3954 22.049 14.5 20.9444 14.5H20.8888C19.7843 14.5 18.8888 15.3954 18.8888 16.5V16.5555ZM18.8888 9.72221C18.8888 10.8268 19.7843 11.7222 20.8888 11.7222H20.9444C22.049 11.7222 22.9444 10.8268 22.9444 9.72221V9.66667C22.9444 8.5621 22.049 7.66667 20.9444 7.66667H20.8888C19.7843 7.66667 18.8888 8.5621 18.8888 9.66667V9.72221ZM29.0833 30.2222C29.0833 31.3268 29.9787 32.2222 31.0833 32.2222H31.1389C32.2434 32.2222 33.1389 31.3268 33.1389 30.2222V30.1667C33.1389 29.0621 32.2434 28.1667 31.1389 28.1667H31.0833C29.9787 28.1667 29.0833 29.0621 29.0833 30.1667V30.2222ZM29.0833 23.3889C29.0833 24.4935 29.9787 25.3889 31.0833 25.3889H31.1389C32.2434 25.3889 33.1389 24.4935 33.1389 23.3889V23.3333C33.1389 22.2288 32.2434 21.3333 31.1389 21.3333H31.0833C29.9787 21.3333 29.0833 22.2288 29.0833 23.3333V23.3889Z" fill="white"/>
</g>
</svg>
