<svg width="41" height="40" viewBox="0 0 41 40" fill="none" xmlns="http://www.w3.org/2000/svg">
<mask id="mask0_8795_8873" style="mask-type:alpha" maskUnits="userSpaceOnUse" x="0" y="0" width="41" height="40">
<rect x="0.083374" width="40" height="40" fill="#D9D9D9"/>
</mask>
<g mask="url(#mask0_8795_8873)">
<path d="M5.75007 30C4.10198 30 3.16121 28.1185 4.15006 26.8L10.1501 18.8C10.9501 17.7333 12.5501 17.7333 13.3501 18.8L19.2495 26.6659C19.5122 27.0161 19.9244 27.2223 20.3621 27.2223C21.5098 27.2223 22.1636 25.9105 21.4725 24.9941L17.7117 20.0071C17.1751 19.2956 17.1741 18.3148 17.7092 17.6021L21.8165 12.1314C22.6168 11.0655 24.2161 11.0659 25.0159 12.1322L36.0167 26.8C37.0056 28.1185 36.0648 30 34.4167 30H5.75007Z" fill="white"/>
</g>
</svg>
