<svg width="41" height="40" viewBox="0 0 41 40" fill="none" xmlns="http://www.w3.org/2000/svg">
<mask id="mask0_8776_7692" style="mask-type:alpha" maskUnits="userSpaceOnUse" x="0" y="0" width="41" height="40">
<rect x="0.833374" width="40" height="40" fill="#D9D9D9"/>
</mask>
<g mask="url(#mask0_8776_7692)">
<path d="M20.8334 36.6667C17.8889 36.6667 15.4862 36.2245 13.6251 35.3403C11.7639 34.456 10.8334 33.3241 10.8334 31.9445C10.8334 31.1204 11.1945 30.3658 11.9167 29.6806C12.6389 28.9954 13.6343 28.4445 14.9028 28.0278L15.7223 30.6945C15.2686 30.8333 14.8519 31.0208 14.4723 31.257C14.0926 31.4931 13.8056 31.7222 13.6111 31.9445C14.0463 32.463 14.9769 32.9167 16.4028 33.3056C17.8288 33.6945 19.3056 33.8889 20.8334 33.8889C22.3612 33.8889 23.845 33.6945 25.2848 33.3056C26.7246 32.9167 27.6621 32.463 28.0973 31.9445C27.9029 31.7407 27.6204 31.5208 27.2501 31.2847C26.8797 31.0486 26.4584 30.8518 25.9862 30.6945L26.7779 28.0278C28.0464 28.4445 29.0394 28.9954 29.757 29.6806C30.4746 30.3658 30.8334 31.1204 30.8334 31.9445C30.8334 33.3241 29.9028 34.456 28.0417 35.3403C26.1806 36.2245 23.7778 36.6667 20.8334 36.6667ZM20.8334 32.0556C20.5093 32.0556 20.2223 31.9607 19.9723 31.7708C19.7223 31.581 19.5417 31.3333 19.4306 31.0278C18.7732 29.0185 17.9491 27.3473 16.9584 26.0139C15.9676 24.6806 15.0047 23.4028 14.0695 22.1806C13.1436 20.9584 12.3496 19.6898 11.6876 18.375C11.0255 17.0602 10.6945 15.4259 10.6945 13.4722C10.6945 10.6389 11.676 8.24074 13.6389 6.27779C15.6019 4.31482 18.0001 3.33333 20.8334 3.33333C23.6667 3.33333 26.0649 4.31482 28.0279 6.27779C29.9908 8.24074 30.9723 10.6389 30.9723 13.4722C30.9723 15.4259 30.6436 17.0602 29.9862 18.375C29.3288 19.6898 28.5325 20.9584 27.5973 22.1806C26.6714 23.4028 25.7107 24.6806 24.7154 26.0139C23.72 27.3473 22.8936 29.0185 22.2362 31.0278C22.1251 31.3333 21.9445 31.581 21.6945 31.7708C21.4445 31.9607 21.1575 32.0556 20.8334 32.0556ZM20.8334 16.3194C21.6204 16.3194 22.2917 16.0417 22.8473 15.4861C23.4028 14.9306 23.6806 14.2593 23.6806 13.4722C23.6806 12.6852 23.4028 12.0139 22.8473 11.4583C22.2917 10.9028 21.6204 10.625 20.8334 10.625C20.0464 10.625 19.3751 10.9028 18.8195 11.4583C18.264 12.0139 17.9862 12.6852 17.9862 13.4722C17.9862 14.2593 18.264 14.9306 18.8195 15.4861C19.3751 16.0417 20.0464 16.3194 20.8334 16.3194Z" fill="white"/>
</g>
</svg>
