<svg width="41" height="40" viewBox="0 0 41 40" fill="none" xmlns="http://www.w3.org/2000/svg">
<mask id="mask0_8776_7686" style="mask-type:alpha" maskUnits="userSpaceOnUse" x="0" y="0" width="41" height="40">
<rect x="0.833374" width="40" height="40" fill="#D9D9D9"/>
</mask>
<g mask="url(#mask0_8776_7686)">
<path d="M11.8056 16.3889H19.8611C20.1204 16.3889 20.3472 16.2917 20.5417 16.0972C20.7361 15.9028 20.8334 15.6759 20.8334 15.4167C20.8334 15.1574 20.7361 14.9306 20.5417 14.7361C20.3472 14.5417 20.1204 14.4445 19.8611 14.4445H11.8056C11.5463 14.4445 11.3195 14.5417 11.125 14.7361C10.9306 14.9306 10.8334 15.1574 10.8334 15.4167C10.8334 15.6759 10.9306 15.9028 11.125 16.0972C11.3195 16.2917 11.5463 16.3889 11.8056 16.3889ZM11.8056 12.2222H19.8611C20.1204 12.2222 20.3472 12.125 20.5417 11.9305C20.7361 11.7361 20.8334 11.5093 20.8334 11.25C20.8334 10.9907 20.7361 10.7639 20.5417 10.5695C20.3472 10.375 20.1204 10.2778 19.8611 10.2778H11.8056C11.5463 10.2778 11.3195 10.375 11.125 10.5695C10.9306 10.7639 10.8334 10.9907 10.8334 11.25C10.8334 11.5093 10.9306 11.7361 11.125 11.9305C11.3195 12.125 11.5463 12.2222 11.8056 12.2222ZM29.1667 18.3333V8.33333H31.3889C32.1528 8.33333 32.8068 8.60532 33.3507 9.14929C33.8947 9.69326 34.1667 10.3472 34.1667 11.1111V11.9445H37.7778C38.1713 11.9445 38.5012 12.0776 38.7674 12.3438C39.0336 12.6099 39.1667 12.9398 39.1667 13.3333C39.1667 13.713 39.0336 14.0394 38.7674 14.3125C38.5012 14.5856 38.1713 14.7222 37.7778 14.7222H34.1667V15.5556C34.1667 16.3195 33.8947 16.9734 33.3507 17.5174C32.8068 18.0613 32.1528 18.3333 31.3889 18.3333H29.1667ZM20.8334 25.8333H11.3889V21.6667H10.8334C9.00002 21.6667 7.43058 21.0139 6.12502 19.7083C4.81946 18.4028 4.16669 16.8333 4.16669 15V11.6667C4.16669 9.83333 4.81946 8.26389 6.12502 6.95833C7.43058 5.65278 9.00002 5 10.8334 5H24.7223C25.4862 5 26.1401 5.27199 26.6841 5.81596C27.228 6.35993 27.5 7.01386 27.5 7.77775V18.8889C27.5 19.6528 27.228 20.3067 26.6841 20.8507C26.1401 21.3947 25.4862 21.6667 24.7223 21.6667H20.8334V25.8333ZM10.1389 35C9.5602 35 9.06831 34.7975 8.66323 34.3924C8.25815 33.9873 8.0556 33.4954 8.0556 32.9167V29.5833C8.0556 29.0046 8.25815 28.5127 8.66323 28.1076C9.06831 27.7025 9.5602 27.5 10.1389 27.5H22.0834C22.6621 27.5 23.154 27.7025 23.5591 28.1076C23.9641 28.5127 24.1667 29.0046 24.1667 29.5833V32.9167C24.1667 33.4954 23.9641 33.9873 23.5591 34.3924C23.154 34.7975 22.6621 35 22.0834 35H10.1389Z" fill="white"/>
</g>
</svg>
