<svg width="41" height="40" viewBox="0 0 41 40" fill="none" xmlns="http://www.w3.org/2000/svg">
<mask id="mask0_8795_8867" style="mask-type:alpha" maskUnits="userSpaceOnUse" x="0" y="0" width="41" height="40">
<rect x="0.916626" width="40" height="40" fill="#D9D9D9"/>
</mask>
<g mask="url(#mask0_8795_8867)">
<path d="M7.4444 31.6667L4.33327 20.8056C4.23141 20.4723 4.25687 20.125 4.40965 19.7639C4.56243 19.4028 4.83326 19.1574 5.22215 19.0278L7.58327 18.2223V9.44442C7.58327 8.67592 7.85411 8.02546 8.39577 7.49305C8.93744 6.96066 9.59252 6.6852 10.361 6.66667H16.1944V1.66667H25.6388V6.66667H31.4722C32.2407 6.66667 32.8958 6.93751 33.4374 7.47917C33.9791 8.02084 34.2499 8.67592 34.2499 9.44442V18.25L36.6388 19.0278C37.037 19.1759 37.3055 19.4236 37.4444 19.7708C37.5833 20.1181 37.6018 20.4537 37.4999 20.7778L34.3888 31.6667C33.037 31.5741 31.787 31.1968 30.6388 30.5347C29.4907 29.8727 28.4814 29.0833 27.6111 28.1667C26.7407 29.1389 25.7407 29.9653 24.6111 30.6458C23.4814 31.3264 22.2499 31.6667 20.9166 31.6667C19.5833 31.6667 18.3518 31.3264 17.2221 30.6458C16.0925 29.9653 15.0925 29.1389 14.2221 28.1667C13.3518 29.0833 12.3425 29.8727 11.1944 30.5347C10.0462 31.1968 8.79623 31.5741 7.4444 31.6667ZM4.24994 38.3333V35.5556H7.58327C8.74994 35.5556 9.90272 35.375 11.0416 35.0139C12.1805 34.6528 13.2499 34.1297 14.2499 33.4445C15.2499 34.1297 16.3194 34.6389 17.4583 34.9723C18.5972 35.3056 19.7499 35.4723 20.9166 35.4723C22.0833 35.4723 23.2361 35.3056 24.3749 34.9723C25.5138 34.6389 26.5833 34.1297 27.5833 33.4445C28.5833 34.1297 29.6527 34.6528 30.7916 35.0139C31.9305 35.375 33.0833 35.5556 34.2499 35.5556H37.5833V38.3333H34.2499C33.1018 38.3333 31.9722 38.1898 30.8611 37.9028C29.75 37.6157 28.6574 37.1944 27.5833 36.6389C26.5092 37.1944 25.405 37.6157 24.2708 37.9028C23.1365 38.1898 22.0185 38.3333 20.9166 38.3333C19.8147 38.3333 18.6967 38.1898 17.5624 37.9028C16.4282 37.6157 15.324 37.1944 14.2499 36.6389C13.1759 37.1944 12.0833 37.6157 10.9721 37.9028C9.86104 38.1898 8.73141 38.3333 7.58327 38.3333H4.24994ZM10.361 17.3334L20.9166 13.9167L31.4722 17.3611V9.44442H10.361V17.3334Z" fill="white"/>
</g>
</svg>
