<svg width="40" height="40" viewBox="0 0 40 40" fill="none" xmlns="http://www.w3.org/2000/svg">
<mask id="mask0_8776_7680" style="mask-type:alpha" maskUnits="userSpaceOnUse" x="0" y="0" width="40" height="40">
<rect width="40" height="40" fill="#D9D9D9"/>
</mask>
<g mask="url(#mask0_8776_7680)">
<path d="M8.88887 31.5555V33.6111C8.88887 34.0046 8.75576 34.3345 8.48954 34.6007C8.22335 34.8669 7.89349 35 7.49996 35H6.38887C5.99537 35 5.66551 34.8669 5.39929 34.6007C5.1331 34.3345 5 34.0046 5 33.6111V20.1667L8.52779 9.7222C8.67593 9.29629 8.92824 8.95833 9.28471 8.70833C9.64121 8.45833 10.0463 8.33333 10.5 8.33333H29.5C29.9537 8.33333 30.3588 8.45833 30.7153 8.70833C31.0718 8.95833 31.3241 9.29629 31.4722 9.7222L35 20.1667V33.6111C35 34.0046 34.8669 34.3345 34.6007 34.6007C34.3345 34.8669 34.0046 35 33.6111 35H32.4722C32.0787 35 31.7489 34.8669 31.4827 34.6007C31.2165 34.3345 31.0834 34.0046 31.0834 33.6111V31.5555H8.88887ZM8.86108 17.3889H31.1389L29.0278 11.1111H10.9722L8.86108 17.3889ZM12.1046 26.8333C12.7663 26.8333 13.3218 26.6065 13.7708 26.1528C14.2199 25.6991 14.4444 25.1482 14.4444 24.5C14.4444 23.8364 14.2176 23.2724 13.7639 22.8079C13.3102 22.3434 12.7592 22.1111 12.1111 22.1111C11.4475 22.1111 10.8835 22.3427 10.419 22.806C9.95446 23.2692 9.72221 23.8317 9.72221 24.4935C9.72221 25.1552 9.95383 25.7106 10.4171 26.1597C10.8803 26.6088 11.4428 26.8333 12.1046 26.8333ZM27.9167 26.8333C28.5803 26.8333 29.1443 26.6065 29.6088 26.1528C30.0733 25.6991 30.3056 25.1482 30.3056 24.5C30.3056 23.8364 30.074 23.2724 29.6107 22.8079C29.1475 22.3434 28.585 22.1111 27.9232 22.1111C27.2615 22.1111 26.706 22.3427 26.257 22.806C25.8079 23.2692 25.5833 23.8317 25.5833 24.4935C25.5833 25.1552 25.8102 25.7106 26.2639 26.1597C26.7176 26.6088 27.2685 26.8333 27.9167 26.8333Z" fill="white"/>
</g>
</svg>
