<svg width="41" height="40" viewBox="0 0 41 40" fill="none" xmlns="http://www.w3.org/2000/svg">
<mask id="mask0_8795_8861" style="mask-type:alpha" maskUnits="userSpaceOnUse" x="0" y="0" width="41" height="40">
<rect x="0.083374" width="40" height="40" fill="#D9D9D9"/>
</mask>
<g mask="url(#mask0_8795_8861)">
<path d="M18.7778 28.5H21.5556V26.6945H23.4445C23.8796 26.6945 24.2384 26.5301 24.5209 26.2014C24.8033 25.8727 24.9445 25.4907 24.9445 25.0555V20.1945C24.9445 19.7407 24.8033 19.3542 24.5209 19.0347C24.2384 18.7153 23.8796 18.5555 23.4445 18.5555H18V16.0833H24.9445V13.3055H21.5556V11.5H18.7778V13.3055H16.8611C16.426 13.3055 16.044 13.4699 15.7153 13.7986C15.3866 14.1273 15.2222 14.5185 15.2222 14.9722V19.8055C15.2222 20.2593 15.3866 20.6273 15.7153 20.9097C16.044 21.1921 16.426 21.3333 16.8611 21.3333H22.1667V23.9167H15.2222V26.6945H18.7778V28.5ZM6.19444 33.3333C5.44444 33.3333 4.79398 33.0579 4.24306 32.507C3.69215 31.956 3.41669 31.3056 3.41669 30.5556V9.44442C3.41669 8.69442 3.69215 8.04396 4.24306 7.49305C4.79398 6.94213 5.44444 6.66667 6.19444 6.66667H33.9723C34.7223 6.66667 35.3727 6.94213 35.9236 7.49305C36.4746 8.04396 36.75 8.69442 36.75 9.44442V30.5556C36.75 31.3056 36.4746 31.956 35.9236 32.507C35.3727 33.0579 34.7223 33.3333 33.9723 33.3333H6.19444Z" fill="white"/>
</g>
</svg>
